G04 #@! TF.FileFunction,Soldermask,Bot*
%FSLAX46Y46*%
G04 Gerber Fmt 4.6, Leading zero omitted, Abs format (unit mm)*
G04 Created by KiCad (PCBNEW 4.0.1-stable) date 2017年02月15日水曜日 20:21:17*
%MOMM*%
G01*
G04 APERTURE LIST*
%ADD10C,0.100000*%
%ADD11R,1.727200X2.032000*%
%ADD12O,1.727200X2.032000*%
G04 APERTURE END LIST*
D10*
D11*
X175260000Y-84455000D03*
D12*
X172720000Y-84455000D03*
X170180000Y-84455000D03*
X167640000Y-84455000D03*
X165100000Y-84455000D03*
X162560000Y-84455000D03*
X160020000Y-84455000D03*
X157480000Y-84455000D03*
D11*
X129540000Y-84455000D03*
D12*
X127000000Y-84455000D03*
X124460000Y-84455000D03*
X121920000Y-84455000D03*
X119380000Y-84455000D03*
X116840000Y-84455000D03*
X114300000Y-84455000D03*
X111760000Y-84455000D03*
D11*
X129540000Y-103505000D03*
D12*
X127000000Y-103505000D03*
X124460000Y-103505000D03*
X121920000Y-103505000D03*
X119380000Y-103505000D03*
X116840000Y-103505000D03*
X114300000Y-103505000D03*
X111760000Y-103505000D03*
D11*
X175260000Y-103505000D03*
D12*
X172720000Y-103505000D03*
X170180000Y-103505000D03*
X167640000Y-103505000D03*
X165100000Y-103505000D03*
X162560000Y-103505000D03*
X160020000Y-103505000D03*
X157480000Y-103505000D03*
D11*
X193040000Y-84455000D03*
D12*
X190500000Y-84455000D03*
X187960000Y-84455000D03*
X185420000Y-84455000D03*
X182880000Y-84455000D03*
D11*
X106680000Y-84455000D03*
D12*
X104140000Y-84455000D03*
X101600000Y-84455000D03*
X99060000Y-84455000D03*
D11*
X106680000Y-103505000D03*
D12*
X104140000Y-103505000D03*
X101600000Y-103505000D03*
X99060000Y-103505000D03*
D11*
X193040000Y-103505000D03*
D12*
X190500000Y-103505000D03*
X187960000Y-103505000D03*
X185420000Y-103505000D03*
D11*
X187960000Y-89535000D03*
D12*
X185420000Y-89535000D03*
X182880000Y-89535000D03*
M02*
