G04 #@! TF.FileFunction,Copper,L2,Bot,Signal*
%FSLAX46Y46*%
G04 Gerber Fmt 4.6, Leading zero omitted, Abs format (unit mm)*
G04 Created by KiCad (PCBNEW 4.0.1-stable) date 2017年02月15日水曜日 20:21:17*
%MOMM*%
G01*
G04 APERTURE LIST*
%ADD10C,0.100000*%
%ADD11R,1.727200X2.032000*%
%ADD12O,1.727200X2.032000*%
%ADD13C,0.600000*%
%ADD14C,0.500000*%
%ADD15C,0.250000*%
%ADD16C,0.180000*%
%ADD17C,0.150000*%
G04 APERTURE END LIST*
D10*
D11*
X175260000Y-84455000D03*
D12*
X172720000Y-84455000D03*
X170180000Y-84455000D03*
X167640000Y-84455000D03*
X165100000Y-84455000D03*
X162560000Y-84455000D03*
X160020000Y-84455000D03*
X157480000Y-84455000D03*
D11*
X129540000Y-84455000D03*
D12*
X127000000Y-84455000D03*
X124460000Y-84455000D03*
X121920000Y-84455000D03*
X119380000Y-84455000D03*
X116840000Y-84455000D03*
X114300000Y-84455000D03*
X111760000Y-84455000D03*
D11*
X129540000Y-103505000D03*
D12*
X127000000Y-103505000D03*
X124460000Y-103505000D03*
X121920000Y-103505000D03*
X119380000Y-103505000D03*
X116840000Y-103505000D03*
X114300000Y-103505000D03*
X111760000Y-103505000D03*
D11*
X175260000Y-103505000D03*
D12*
X172720000Y-103505000D03*
X170180000Y-103505000D03*
X167640000Y-103505000D03*
X165100000Y-103505000D03*
X162560000Y-103505000D03*
X160020000Y-103505000D03*
X157480000Y-103505000D03*
D11*
X193040000Y-84455000D03*
D12*
X190500000Y-84455000D03*
X187960000Y-84455000D03*
X185420000Y-84455000D03*
X182880000Y-84455000D03*
D11*
X106680000Y-84455000D03*
D12*
X104140000Y-84455000D03*
X101600000Y-84455000D03*
X99060000Y-84455000D03*
D11*
X106680000Y-103505000D03*
D12*
X104140000Y-103505000D03*
X101600000Y-103505000D03*
X99060000Y-103505000D03*
D11*
X193040000Y-103505000D03*
D12*
X190500000Y-103505000D03*
X187960000Y-103505000D03*
X185420000Y-103505000D03*
D11*
X187960000Y-89535000D03*
D12*
X185420000Y-89535000D03*
X182880000Y-89535000D03*
D13*
X109220000Y-99568000D03*
X187960000Y-99314000D03*
X134874000Y-103124000D03*
X152400000Y-83439000D03*
X134112000Y-101092000D03*
X152146000Y-103378000D03*
X135890000Y-101092000D03*
X141732000Y-84328000D03*
X186436000Y-87630000D03*
X155448000Y-87122000D03*
X192024000Y-99314000D03*
X192024000Y-87376000D03*
X180086000Y-99822000D03*
X186182000Y-95758000D03*
X180721000Y-89281000D03*
X148844000Y-92583000D03*
X148844000Y-91694000D03*
X180721000Y-88011000D03*
X140335000Y-100457000D03*
X113157000Y-92075000D03*
X139573000Y-100965000D03*
X113792000Y-93091000D03*
X144018000Y-101727000D03*
X114427000Y-93980000D03*
X139573000Y-102235000D03*
X108966000Y-96393000D03*
X147320000Y-91440000D03*
X146812000Y-90805000D03*
X146304000Y-90170000D03*
X145796000Y-89535000D03*
X147066000Y-95377000D03*
X170180000Y-95377000D03*
X182118000Y-99822000D03*
X185420000Y-100330000D03*
X171323000Y-94615000D03*
X148082000Y-94615000D03*
X144399000Y-93980000D03*
X181356000Y-100584000D03*
X144399000Y-94996000D03*
X176657000Y-100711000D03*
X179070000Y-99822000D03*
X186690000Y-94742000D03*
X186690000Y-93726000D03*
X178054000Y-99822000D03*
X128397000Y-89027000D03*
X134620000Y-89027000D03*
X125730000Y-88138000D03*
X135636000Y-88138000D03*
X142113000Y-94869000D03*
X156337000Y-98679000D03*
X141605000Y-95504000D03*
X159004000Y-99060000D03*
X161544000Y-99060000D03*
X141351000Y-96647000D03*
X140970000Y-97536000D03*
X163830000Y-99441000D03*
X140335000Y-98171000D03*
X166370000Y-99441000D03*
X168910000Y-98298000D03*
X147320000Y-97917000D03*
X148209000Y-97536000D03*
X171450000Y-98298000D03*
X173990000Y-98298000D03*
X148844000Y-96774000D03*
D14*
X134874000Y-103124000D02*
X133350000Y-101600000D01*
X109220000Y-100965000D02*
X109855000Y-101600000D01*
X109855000Y-101600000D02*
X133350000Y-101600000D01*
X109220000Y-99568000D02*
X109220000Y-100965000D01*
X187960000Y-86995000D02*
X187960000Y-89535000D01*
X187960000Y-100838000D02*
X187960000Y-99314000D01*
X187960000Y-88265000D02*
X187960000Y-100838000D01*
X136144000Y-104394000D02*
X134874000Y-103124000D01*
X187960000Y-100838000D02*
X186944000Y-101854000D01*
X186944000Y-101854000D02*
X155448000Y-101854000D01*
X155448000Y-101854000D02*
X152908000Y-104394000D01*
X152908000Y-104394000D02*
X136144000Y-104394000D01*
X187960000Y-86995000D02*
X187960000Y-86741000D01*
X153035000Y-84074000D02*
X152400000Y-83439000D01*
X153035000Y-85725000D02*
X153035000Y-84074000D01*
X153543000Y-86233000D02*
X153035000Y-85725000D01*
X187452000Y-86233000D02*
X153543000Y-86233000D01*
X187960000Y-86741000D02*
X187452000Y-86233000D01*
X187960000Y-88265000D02*
X187960000Y-86995000D01*
X193040000Y-85852000D02*
X193040000Y-84455000D01*
X192659000Y-86233000D02*
X193040000Y-85852000D01*
X188722000Y-86233000D02*
X192659000Y-86233000D01*
X187960000Y-86995000D02*
X188722000Y-86233000D01*
X134112000Y-101092000D02*
X135890000Y-101092000D01*
X135890000Y-102362000D02*
X135890000Y-101092000D01*
X136906000Y-103378000D02*
X135890000Y-102362000D01*
X152146000Y-103378000D02*
X136906000Y-103378000D01*
X155448000Y-87122000D02*
X152908000Y-87122000D01*
X151892000Y-84328000D02*
X141732000Y-84328000D01*
X152146000Y-84582000D02*
X151892000Y-84328000D01*
X152146000Y-86360000D02*
X152146000Y-84582000D01*
X152908000Y-87122000D02*
X152146000Y-86360000D01*
X185928000Y-87122000D02*
X186436000Y-87630000D01*
X185928000Y-87122000D02*
X155448000Y-87122000D01*
X192024000Y-87376000D02*
X192024000Y-99314000D01*
D15*
X180086000Y-99822000D02*
X180340000Y-99822000D01*
X180340000Y-99822000D02*
X184150000Y-96012000D01*
X184150000Y-96012000D02*
X185928000Y-96012000D01*
X185928000Y-96012000D02*
X186182000Y-95758000D01*
X180721000Y-89281000D02*
X178054000Y-91948000D01*
X178054000Y-91948000D02*
X149479000Y-91948000D01*
X148844000Y-92583000D02*
X149479000Y-91948000D01*
X148844000Y-91694000D02*
X149479000Y-91059000D01*
X149479000Y-91059000D02*
X149352000Y-91186000D01*
X177673000Y-91059000D02*
X180721000Y-88011000D01*
X149479000Y-91059000D02*
X177673000Y-91059000D01*
X114808000Y-92075000D02*
X115697000Y-92964000D01*
X115697000Y-92964000D02*
X132842000Y-92964000D01*
X140335000Y-100457000D02*
X132842000Y-92964000D01*
X114808000Y-92075000D02*
X113157000Y-92075000D01*
X113792000Y-93091000D02*
X114750002Y-93091000D01*
X115131002Y-93472000D02*
X132080000Y-93472000D01*
X114750002Y-93091000D02*
X115131002Y-93472000D01*
X139573000Y-100965000D02*
X132080000Y-93472000D01*
X114427000Y-93980000D02*
X131191000Y-93980000D01*
X144018000Y-101727000D02*
X143891000Y-101600000D01*
X143891000Y-101600000D02*
X138811000Y-101600000D01*
X138811000Y-101600000D02*
X131191000Y-93980000D01*
X138176000Y-102235000D02*
X137795000Y-101854000D01*
X139573000Y-102235000D02*
X138176000Y-102235000D01*
X137795000Y-101854000D02*
X132334000Y-96393000D01*
X132334000Y-96393000D02*
X108966000Y-96393000D01*
X106680000Y-92456000D02*
X107823000Y-91313000D01*
X106680000Y-103505000D02*
X106680000Y-92456000D01*
X147320000Y-91440000D02*
X146431000Y-91440000D01*
X107823000Y-91313000D02*
X146304000Y-91313000D01*
X146304000Y-91313000D02*
X146431000Y-91440000D01*
X107442000Y-90805000D02*
X104140000Y-94107000D01*
X104140000Y-94107000D02*
X104140000Y-103505000D01*
X146812000Y-90805000D02*
X107442000Y-90805000D01*
X107061000Y-90297000D02*
X101600000Y-95758000D01*
X101600000Y-95758000D02*
X101600000Y-103505000D01*
X146177000Y-90297000D02*
X107061000Y-90297000D01*
X146304000Y-90170000D02*
X146177000Y-90297000D01*
X106680000Y-89789000D02*
X99060000Y-97409000D01*
X99060000Y-97409000D02*
X99060000Y-97536000D01*
X99060000Y-97536000D02*
X99060000Y-103505000D01*
X145542000Y-89789000D02*
X106680000Y-89789000D01*
X145796000Y-89535000D02*
X145542000Y-89789000D01*
X170180000Y-95377000D02*
X147066000Y-95377000D01*
X182626000Y-100330000D02*
X185420000Y-100330000D01*
X182118000Y-99822000D02*
X182626000Y-100330000D01*
X148082000Y-94615000D02*
X171323000Y-94615000D01*
X144399000Y-93980000D02*
X145161000Y-93218000D01*
X172212000Y-93218000D02*
X173482000Y-94488000D01*
X145161000Y-93218000D02*
X172212000Y-93218000D01*
X177292000Y-98298000D02*
X173482000Y-94488000D01*
X177292000Y-100203000D02*
X177292000Y-98298000D01*
X177673000Y-100584000D02*
X177292000Y-100203000D01*
X181356000Y-100584000D02*
X177673000Y-100584000D01*
X173101000Y-94996000D02*
X171958000Y-93853000D01*
X145542000Y-93853000D02*
X144399000Y-94996000D01*
X171958000Y-93853000D02*
X145542000Y-93853000D01*
X176657000Y-98552000D02*
X176657000Y-100711000D01*
X173101000Y-94996000D02*
X176657000Y-98552000D01*
X185928000Y-94742000D02*
X186690000Y-94742000D01*
X185166000Y-95504000D02*
X185928000Y-94742000D01*
X183896000Y-95504000D02*
X185166000Y-95504000D01*
X182118000Y-97282000D02*
X183896000Y-95504000D01*
X181610000Y-97282000D02*
X182118000Y-97282000D01*
X179070000Y-99822000D02*
X181610000Y-97282000D01*
X184658000Y-91694000D02*
X186690000Y-93726000D01*
X181864000Y-91694000D02*
X184658000Y-91694000D01*
X180848000Y-92710000D02*
X181864000Y-91694000D01*
X180848000Y-97028000D02*
X180848000Y-92710000D01*
X178054000Y-99822000D02*
X180848000Y-97028000D01*
D16*
X134620000Y-89027000D02*
X128397000Y-89027000D01*
X135636000Y-88138000D02*
X125730000Y-88138000D01*
X150876000Y-99060000D02*
X146304000Y-99060000D01*
X146304000Y-99060000D02*
X142113000Y-94869000D01*
X155956000Y-99060000D02*
X156337000Y-98679000D01*
X150749000Y-99060000D02*
X150876000Y-99060000D01*
X150876000Y-99060000D02*
X155956000Y-99060000D01*
X145669000Y-99568000D02*
X150622000Y-99568000D01*
X141605000Y-95504000D02*
X145669000Y-99568000D01*
X158496000Y-99568000D02*
X159004000Y-99060000D01*
X150622000Y-99568000D02*
X158496000Y-99568000D01*
X144780000Y-100076000D02*
X141732000Y-97028000D01*
X160528000Y-100076000D02*
X161544000Y-99060000D01*
X160528000Y-100076000D02*
X144780000Y-100076000D01*
X141351000Y-96647000D02*
X141732000Y-97028000D01*
X144018000Y-100584000D02*
X145288000Y-100584000D01*
X140970000Y-97536000D02*
X144018000Y-100584000D01*
X145288000Y-100584000D02*
X162687000Y-100584000D01*
X162687000Y-100584000D02*
X163830000Y-99441000D01*
X143256000Y-101092000D02*
X144653000Y-101092000D01*
X140335000Y-98171000D02*
X143256000Y-101092000D01*
X144653000Y-101092000D02*
X164719000Y-101092000D01*
X164719000Y-101092000D02*
X166370000Y-99441000D01*
X151130000Y-98298000D02*
X147701000Y-98298000D01*
X151384000Y-98044000D02*
X151130000Y-98298000D01*
X168910000Y-98298000D02*
X168656000Y-98044000D01*
X151384000Y-98044000D02*
X168656000Y-98044000D01*
X147701000Y-98298000D02*
X147320000Y-97917000D01*
X148209000Y-97536000D02*
X150368000Y-97536000D01*
X150368000Y-97536000D02*
X170688000Y-97536000D01*
X170688000Y-97536000D02*
X171450000Y-98298000D01*
X149352000Y-97028000D02*
X149098000Y-97028000D01*
X173990000Y-98298000D02*
X172720000Y-97028000D01*
X172720000Y-97028000D02*
X149352000Y-97028000D01*
X149098000Y-97028000D02*
X148844000Y-96774000D01*
D17*
G36*
X151870460Y-83084504D02*
X151775109Y-83314134D01*
X151774892Y-83562775D01*
X151869842Y-83792571D01*
X152045504Y-83968540D01*
X152166688Y-84018860D01*
X152460000Y-84312173D01*
X152460000Y-85725000D01*
X152485262Y-85852000D01*
X152503769Y-85945043D01*
X152628414Y-86131586D01*
X153136413Y-86639586D01*
X153322957Y-86764231D01*
X153543000Y-86808000D01*
X187213828Y-86808000D01*
X187385000Y-86979173D01*
X187385000Y-88187633D01*
X187096400Y-88187633D01*
X186975962Y-88210295D01*
X186865347Y-88281474D01*
X186791140Y-88390080D01*
X186765033Y-88519000D01*
X186765033Y-90551000D01*
X186787695Y-90671438D01*
X186858874Y-90782053D01*
X186967480Y-90856260D01*
X187096400Y-90882367D01*
X187385000Y-90882367D01*
X187385000Y-99068983D01*
X187335109Y-99189134D01*
X187334892Y-99437775D01*
X187385000Y-99559045D01*
X187385000Y-100599828D01*
X186705828Y-101279000D01*
X176918987Y-101279000D01*
X177010571Y-101241158D01*
X177186540Y-101065496D01*
X177281891Y-100835866D01*
X177281897Y-100829293D01*
X177354802Y-100902198D01*
X177500792Y-100999746D01*
X177673000Y-101034000D01*
X180922103Y-101034000D01*
X181001504Y-101113540D01*
X181231134Y-101208891D01*
X181479775Y-101209108D01*
X181709571Y-101114158D01*
X181885540Y-100938496D01*
X181980891Y-100708866D01*
X181981108Y-100460225D01*
X181971967Y-100438102D01*
X181993134Y-100446891D01*
X182106594Y-100446990D01*
X182307802Y-100648198D01*
X182453792Y-100745746D01*
X182626000Y-100780000D01*
X184986103Y-100780000D01*
X185065504Y-100859540D01*
X185295134Y-100954891D01*
X185543775Y-100955108D01*
X185773571Y-100860158D01*
X185949540Y-100684496D01*
X186044891Y-100454866D01*
X186045108Y-100206225D01*
X185950158Y-99976429D01*
X185774496Y-99800460D01*
X185544866Y-99705109D01*
X185296225Y-99704892D01*
X185066429Y-99799842D01*
X184986131Y-99880000D01*
X182812396Y-99880000D01*
X182743010Y-99810614D01*
X182743108Y-99698225D01*
X182648158Y-99468429D01*
X182472496Y-99292460D01*
X182242866Y-99197109D01*
X181994225Y-99196892D01*
X181764429Y-99291842D01*
X181588460Y-99467504D01*
X181493109Y-99697134D01*
X181492892Y-99945775D01*
X181502033Y-99967898D01*
X181480866Y-99959109D01*
X181232225Y-99958892D01*
X181002429Y-100053842D01*
X180922131Y-100134000D01*
X180664396Y-100134000D01*
X184336396Y-96462000D01*
X185928000Y-96462000D01*
X186100208Y-96427746D01*
X186167194Y-96382987D01*
X186305775Y-96383108D01*
X186535571Y-96288158D01*
X186711540Y-96112496D01*
X186806891Y-95882866D01*
X186807108Y-95634225D01*
X186712158Y-95404429D01*
X186674781Y-95366987D01*
X186813775Y-95367108D01*
X187043571Y-95272158D01*
X187219540Y-95096496D01*
X187314891Y-94866866D01*
X187315108Y-94618225D01*
X187220158Y-94388429D01*
X187065883Y-94233885D01*
X187219540Y-94080496D01*
X187314891Y-93850866D01*
X187315108Y-93602225D01*
X187220158Y-93372429D01*
X187044496Y-93196460D01*
X186814866Y-93101109D01*
X186701406Y-93101010D01*
X184976198Y-91375802D01*
X184923259Y-91340429D01*
X184830208Y-91278254D01*
X184658000Y-91244000D01*
X181864000Y-91244000D01*
X181691792Y-91278254D01*
X181598741Y-91340429D01*
X181545802Y-91375802D01*
X180529802Y-92391802D01*
X180432254Y-92537792D01*
X180398000Y-92710000D01*
X180398000Y-96841604D01*
X178042614Y-99196990D01*
X177930225Y-99196892D01*
X177742000Y-99274665D01*
X177742000Y-98298000D01*
X177707746Y-98125792D01*
X177610198Y-97979802D01*
X172530198Y-92899802D01*
X172488209Y-92871746D01*
X172384208Y-92802254D01*
X172212000Y-92768000D01*
X149443921Y-92768000D01*
X149468891Y-92707866D01*
X149468990Y-92594406D01*
X149665396Y-92398000D01*
X178054000Y-92398000D01*
X178226208Y-92363746D01*
X178372198Y-92266198D01*
X180698683Y-89939713D01*
X181456996Y-89939713D01*
X181661872Y-90465067D01*
X182052197Y-90872028D01*
X182478645Y-91077208D01*
X182701000Y-90975876D01*
X182701000Y-89714000D01*
X181580795Y-89714000D01*
X181456996Y-89939713D01*
X180698683Y-89939713D01*
X180732386Y-89906010D01*
X180844775Y-89906108D01*
X181074571Y-89811158D01*
X181250540Y-89635496D01*
X181345891Y-89405866D01*
X181346108Y-89157225D01*
X181334978Y-89130287D01*
X181456996Y-89130287D01*
X181580795Y-89356000D01*
X182701000Y-89356000D01*
X182701000Y-88094124D01*
X183059000Y-88094124D01*
X183059000Y-89356000D01*
X183079000Y-89356000D01*
X183079000Y-89714000D01*
X183059000Y-89714000D01*
X183059000Y-90975876D01*
X183281355Y-91077208D01*
X183707803Y-90872028D01*
X184098128Y-90465067D01*
X184285361Y-89984953D01*
X184321877Y-90168530D01*
X184579533Y-90554139D01*
X184965142Y-90811795D01*
X185420000Y-90902272D01*
X185874858Y-90811795D01*
X186260467Y-90554139D01*
X186518123Y-90168530D01*
X186608600Y-89713672D01*
X186608600Y-89356328D01*
X186518123Y-88901470D01*
X186260467Y-88515861D01*
X185874858Y-88258205D01*
X185420000Y-88167728D01*
X184965142Y-88258205D01*
X184579533Y-88515861D01*
X184321877Y-88901470D01*
X184285361Y-89085047D01*
X184098128Y-88604933D01*
X183707803Y-88197972D01*
X183281355Y-87992792D01*
X183059000Y-88094124D01*
X182701000Y-88094124D01*
X182478645Y-87992792D01*
X182052197Y-88197972D01*
X181661872Y-88604933D01*
X181456996Y-89130287D01*
X181334978Y-89130287D01*
X181251158Y-88927429D01*
X181075496Y-88751460D01*
X180845866Y-88656109D01*
X180712403Y-88655993D01*
X180732386Y-88636010D01*
X180844775Y-88636108D01*
X181074571Y-88541158D01*
X181250540Y-88365496D01*
X181345891Y-88135866D01*
X181346108Y-87887225D01*
X181251158Y-87657429D01*
X181075496Y-87481460D01*
X180845866Y-87386109D01*
X180597225Y-87385892D01*
X180367429Y-87480842D01*
X180191460Y-87656504D01*
X180096109Y-87886134D01*
X180096010Y-87999594D01*
X177486604Y-90609000D01*
X149479000Y-90609000D01*
X149306793Y-90643253D01*
X149160802Y-90740802D01*
X148832614Y-91068990D01*
X148720225Y-91068892D01*
X148490429Y-91163842D01*
X148314460Y-91339504D01*
X148219109Y-91569134D01*
X148218892Y-91817775D01*
X148313842Y-92047571D01*
X148404617Y-92138504D01*
X148314460Y-92228504D01*
X148219109Y-92458134D01*
X148218892Y-92706775D01*
X148244190Y-92768000D01*
X145161000Y-92768000D01*
X144988792Y-92802254D01*
X144884791Y-92871746D01*
X144842802Y-92899802D01*
X144387614Y-93354990D01*
X144275225Y-93354892D01*
X144045429Y-93449842D01*
X143869460Y-93625504D01*
X143774109Y-93855134D01*
X143773892Y-94103775D01*
X143868842Y-94333571D01*
X144023117Y-94488115D01*
X143869460Y-94641504D01*
X143774109Y-94871134D01*
X143773892Y-95119775D01*
X143868842Y-95349571D01*
X144044504Y-95525540D01*
X144274134Y-95620891D01*
X144522775Y-95621108D01*
X144752571Y-95526158D01*
X144928540Y-95350496D01*
X145023891Y-95120866D01*
X145023990Y-95007406D01*
X145728396Y-94303000D01*
X147534814Y-94303000D01*
X147457109Y-94490134D01*
X147456892Y-94738775D01*
X147534665Y-94927000D01*
X147499897Y-94927000D01*
X147420496Y-94847460D01*
X147190866Y-94752109D01*
X146942225Y-94751892D01*
X146712429Y-94846842D01*
X146536460Y-95022504D01*
X146441109Y-95252134D01*
X146440892Y-95500775D01*
X146535842Y-95730571D01*
X146711504Y-95906540D01*
X146941134Y-96001891D01*
X147189775Y-96002108D01*
X147419571Y-95907158D01*
X147499869Y-95827000D01*
X169746103Y-95827000D01*
X169825504Y-95906540D01*
X170055134Y-96001891D01*
X170303775Y-96002108D01*
X170533571Y-95907158D01*
X170709540Y-95731496D01*
X170804891Y-95501866D01*
X170805108Y-95253225D01*
X170727335Y-95065000D01*
X170889103Y-95065000D01*
X170968504Y-95144540D01*
X171198134Y-95239891D01*
X171446775Y-95240108D01*
X171676571Y-95145158D01*
X171852540Y-94969496D01*
X171947891Y-94739866D01*
X171948108Y-94491225D01*
X171939855Y-94471251D01*
X176207000Y-98738396D01*
X176207000Y-100277103D01*
X176127460Y-100356504D01*
X176032109Y-100586134D01*
X176031892Y-100834775D01*
X176126842Y-101064571D01*
X176302504Y-101240540D01*
X176395126Y-101279000D01*
X165118898Y-101279000D01*
X166331932Y-100065967D01*
X166493775Y-100066108D01*
X166723571Y-99971158D01*
X166899540Y-99795496D01*
X166994891Y-99565866D01*
X166995108Y-99317225D01*
X166900158Y-99087429D01*
X166724496Y-98911460D01*
X166494866Y-98816109D01*
X166246225Y-98815892D01*
X166016429Y-98910842D01*
X165840460Y-99086504D01*
X165745109Y-99316134D01*
X165744967Y-99479134D01*
X164547102Y-100677000D01*
X163180898Y-100677000D01*
X163791931Y-100065967D01*
X163953775Y-100066108D01*
X164183571Y-99971158D01*
X164359540Y-99795496D01*
X164454891Y-99565866D01*
X164455108Y-99317225D01*
X164360158Y-99087429D01*
X164184496Y-98911460D01*
X163954866Y-98816109D01*
X163706225Y-98815892D01*
X163476429Y-98910842D01*
X163300460Y-99086504D01*
X163205109Y-99316134D01*
X163204967Y-99479135D01*
X162515102Y-100169000D01*
X161021898Y-100169000D01*
X161505931Y-99684967D01*
X161667775Y-99685108D01*
X161897571Y-99590158D01*
X162073540Y-99414496D01*
X162168891Y-99184866D01*
X162169108Y-98936225D01*
X162074158Y-98706429D01*
X161898496Y-98530460D01*
X161726402Y-98459000D01*
X168300273Y-98459000D01*
X168379842Y-98651571D01*
X168555504Y-98827540D01*
X168785134Y-98922891D01*
X169033775Y-98923108D01*
X169263571Y-98828158D01*
X169439540Y-98652496D01*
X169534891Y-98422866D01*
X169535108Y-98174225D01*
X169442873Y-97951000D01*
X170516102Y-97951000D01*
X170825033Y-98259932D01*
X170824892Y-98421775D01*
X170919842Y-98651571D01*
X171095504Y-98827540D01*
X171325134Y-98922891D01*
X171573775Y-98923108D01*
X171803571Y-98828158D01*
X171979540Y-98652496D01*
X172074891Y-98422866D01*
X172075108Y-98174225D01*
X171980158Y-97944429D01*
X171804496Y-97768460D01*
X171574866Y-97673109D01*
X171411865Y-97672967D01*
X171181898Y-97443000D01*
X172548102Y-97443000D01*
X173365033Y-98259931D01*
X173364892Y-98421775D01*
X173459842Y-98651571D01*
X173635504Y-98827540D01*
X173865134Y-98922891D01*
X174113775Y-98923108D01*
X174343571Y-98828158D01*
X174519540Y-98652496D01*
X174614891Y-98422866D01*
X174615108Y-98174225D01*
X174520158Y-97944429D01*
X174344496Y-97768460D01*
X174114866Y-97673109D01*
X173951865Y-97672967D01*
X173013449Y-96734551D01*
X172976410Y-96709802D01*
X172878814Y-96644590D01*
X172720000Y-96613000D01*
X149453727Y-96613000D01*
X149374158Y-96420429D01*
X149198496Y-96244460D01*
X148968866Y-96149109D01*
X148720225Y-96148892D01*
X148490429Y-96243842D01*
X148314460Y-96419504D01*
X148219109Y-96649134D01*
X148218892Y-96897775D01*
X148224362Y-96911013D01*
X148085225Y-96910892D01*
X147855429Y-97005842D01*
X147679460Y-97181504D01*
X147605786Y-97358929D01*
X147444866Y-97292109D01*
X147196225Y-97291892D01*
X146966429Y-97386842D01*
X146790460Y-97562504D01*
X146695109Y-97792134D01*
X146694892Y-98040775D01*
X146789842Y-98270571D01*
X146965504Y-98446540D01*
X147195134Y-98541891D01*
X147358134Y-98542033D01*
X147407550Y-98591449D01*
X147487695Y-98645000D01*
X146475898Y-98645000D01*
X142737967Y-94907069D01*
X142738108Y-94745225D01*
X142643158Y-94515429D01*
X142467496Y-94339460D01*
X142237866Y-94244109D01*
X141989225Y-94243892D01*
X141759429Y-94338842D01*
X141583460Y-94514504D01*
X141488109Y-94744134D01*
X141487991Y-94878898D01*
X141481225Y-94878892D01*
X141251429Y-94973842D01*
X141075460Y-95149504D01*
X140980109Y-95379134D01*
X140979892Y-95627775D01*
X141074842Y-95857571D01*
X141238886Y-96021902D01*
X141227225Y-96021892D01*
X140997429Y-96116842D01*
X140821460Y-96292504D01*
X140726109Y-96522134D01*
X140725892Y-96770775D01*
X140792893Y-96932929D01*
X140616429Y-97005842D01*
X140440460Y-97181504D01*
X140345109Y-97411134D01*
X140344991Y-97546009D01*
X140211225Y-97545892D01*
X139981429Y-97640842D01*
X139805460Y-97816504D01*
X139710109Y-98046134D01*
X139709892Y-98294775D01*
X139804842Y-98524571D01*
X139980504Y-98700540D01*
X140210134Y-98795891D01*
X140373135Y-98796033D01*
X142727102Y-101150000D01*
X140172921Y-101150000D01*
X140197891Y-101089866D01*
X140197902Y-101076812D01*
X140210134Y-101081891D01*
X140458775Y-101082108D01*
X140688571Y-100987158D01*
X140864540Y-100811496D01*
X140959891Y-100581866D01*
X140960108Y-100333225D01*
X140865158Y-100103429D01*
X140689496Y-99927460D01*
X140459866Y-99832109D01*
X140346406Y-99832010D01*
X133160198Y-92645802D01*
X133129066Y-92625000D01*
X133014208Y-92548254D01*
X132842000Y-92514000D01*
X115883396Y-92514000D01*
X115132396Y-91763000D01*
X146119989Y-91763000D01*
X146258792Y-91855746D01*
X146431000Y-91890000D01*
X146886103Y-91890000D01*
X146965504Y-91969540D01*
X147195134Y-92064891D01*
X147443775Y-92065108D01*
X147673571Y-91970158D01*
X147849540Y-91794496D01*
X147944891Y-91564866D01*
X147945108Y-91316225D01*
X147850158Y-91086429D01*
X147674496Y-90910460D01*
X147444866Y-90815109D01*
X147436991Y-90815102D01*
X147437108Y-90681225D01*
X147342158Y-90451429D01*
X147166496Y-90275460D01*
X146936866Y-90180109D01*
X146928991Y-90180102D01*
X146929108Y-90046225D01*
X146834158Y-89816429D01*
X146658496Y-89640460D01*
X146428866Y-89545109D01*
X146420991Y-89545102D01*
X146421108Y-89411225D01*
X146326158Y-89181429D01*
X146150496Y-89005460D01*
X145920866Y-88910109D01*
X145672225Y-88909892D01*
X145442429Y-89004842D01*
X145266460Y-89180504D01*
X145200647Y-89339000D01*
X135167186Y-89339000D01*
X135244891Y-89151866D01*
X135245108Y-88903225D01*
X135150158Y-88673429D01*
X135029939Y-88553000D01*
X135167164Y-88553000D01*
X135281504Y-88667540D01*
X135511134Y-88762891D01*
X135759775Y-88763108D01*
X135989571Y-88668158D01*
X136165540Y-88492496D01*
X136260891Y-88262866D01*
X136261108Y-88014225D01*
X136166158Y-87784429D01*
X135990496Y-87608460D01*
X135760866Y-87513109D01*
X135512225Y-87512892D01*
X135282429Y-87607842D01*
X135167070Y-87723000D01*
X126198836Y-87723000D01*
X126084496Y-87608460D01*
X125854866Y-87513109D01*
X125606225Y-87512892D01*
X125376429Y-87607842D01*
X125200460Y-87783504D01*
X125105109Y-88013134D01*
X125104892Y-88261775D01*
X125199842Y-88491571D01*
X125375504Y-88667540D01*
X125605134Y-88762891D01*
X125853775Y-88763108D01*
X126083571Y-88668158D01*
X126198930Y-88553000D01*
X127987173Y-88553000D01*
X127867460Y-88672504D01*
X127772109Y-88902134D01*
X127771892Y-89150775D01*
X127849665Y-89339000D01*
X106680000Y-89339000D01*
X106507792Y-89373254D01*
X106361802Y-89470802D01*
X98741802Y-97090802D01*
X98644254Y-97236792D01*
X98610000Y-97409000D01*
X98610000Y-102227239D01*
X98605142Y-102228205D01*
X98219533Y-102485861D01*
X97961877Y-102871470D01*
X97871400Y-103326328D01*
X97871400Y-103683672D01*
X97961877Y-104138530D01*
X98219533Y-104524139D01*
X98605142Y-104781795D01*
X99060000Y-104872272D01*
X99514858Y-104781795D01*
X99900467Y-104524139D01*
X100158123Y-104138530D01*
X100248600Y-103683672D01*
X100248600Y-103326328D01*
X100158123Y-102871470D01*
X99900467Y-102485861D01*
X99514858Y-102228205D01*
X99510000Y-102227239D01*
X99510000Y-97595396D01*
X101150000Y-95955396D01*
X101150000Y-102227239D01*
X101145142Y-102228205D01*
X100759533Y-102485861D01*
X100501877Y-102871470D01*
X100411400Y-103326328D01*
X100411400Y-103683672D01*
X100501877Y-104138530D01*
X100759533Y-104524139D01*
X101145142Y-104781795D01*
X101600000Y-104872272D01*
X102054858Y-104781795D01*
X102440467Y-104524139D01*
X102698123Y-104138530D01*
X102788600Y-103683672D01*
X102788600Y-103326328D01*
X102698123Y-102871470D01*
X102440467Y-102485861D01*
X102054858Y-102228205D01*
X102050000Y-102227239D01*
X102050000Y-95944396D01*
X103690000Y-94304396D01*
X103690000Y-102227239D01*
X103685142Y-102228205D01*
X103299533Y-102485861D01*
X103041877Y-102871470D01*
X102951400Y-103326328D01*
X102951400Y-103683672D01*
X103041877Y-104138530D01*
X103299533Y-104524139D01*
X103685142Y-104781795D01*
X104140000Y-104872272D01*
X104594858Y-104781795D01*
X104980467Y-104524139D01*
X105238123Y-104138530D01*
X105328600Y-103683672D01*
X105328600Y-103326328D01*
X105238123Y-102871470D01*
X104980467Y-102485861D01*
X104594858Y-102228205D01*
X104590000Y-102227239D01*
X104590000Y-94293396D01*
X106230000Y-92653396D01*
X106230000Y-102157633D01*
X105816400Y-102157633D01*
X105695962Y-102180295D01*
X105585347Y-102251474D01*
X105511140Y-102360080D01*
X105485033Y-102489000D01*
X105485033Y-104521000D01*
X105507695Y-104641438D01*
X105578874Y-104752053D01*
X105687480Y-104826260D01*
X105816400Y-104852367D01*
X107543600Y-104852367D01*
X107664038Y-104829705D01*
X107774653Y-104758526D01*
X107848860Y-104649920D01*
X107874967Y-104521000D01*
X107874967Y-102489000D01*
X107852305Y-102368562D01*
X107781126Y-102257947D01*
X107672520Y-102183740D01*
X107543600Y-102157633D01*
X107130000Y-102157633D01*
X107130000Y-94952752D01*
X107497398Y-95502602D01*
X108186798Y-95963244D01*
X108457843Y-96017158D01*
X108436460Y-96038504D01*
X108341109Y-96268134D01*
X108340892Y-96516775D01*
X108435842Y-96746571D01*
X108611504Y-96922540D01*
X108841134Y-97017891D01*
X109089775Y-97018108D01*
X109319571Y-96923158D01*
X109399869Y-96843000D01*
X132147604Y-96843000D01*
X137857802Y-102553198D01*
X138003792Y-102650746D01*
X138176000Y-102685000D01*
X139139103Y-102685000D01*
X139218504Y-102764540D01*
X139448134Y-102859891D01*
X139696775Y-102860108D01*
X139926571Y-102765158D01*
X140102540Y-102589496D01*
X140197891Y-102359866D01*
X140198108Y-102111225D01*
X140172810Y-102050000D01*
X143475210Y-102050000D01*
X143487842Y-102080571D01*
X143663504Y-102256540D01*
X143893134Y-102351891D01*
X144141775Y-102352108D01*
X144371571Y-102257158D01*
X144547540Y-102081496D01*
X144642891Y-101851866D01*
X144643108Y-101603225D01*
X144603349Y-101507000D01*
X154981827Y-101507000D01*
X152669828Y-103819000D01*
X136382173Y-103819000D01*
X135453840Y-102890668D01*
X135404158Y-102770429D01*
X135228496Y-102594460D01*
X135107313Y-102544140D01*
X133756586Y-101193414D01*
X133570043Y-101068769D01*
X133548938Y-101064571D01*
X133350000Y-101025000D01*
X110093173Y-101025000D01*
X109795000Y-100726828D01*
X109795000Y-99813017D01*
X109844891Y-99692866D01*
X109845108Y-99444225D01*
X109750158Y-99214429D01*
X109574496Y-99038460D01*
X109344866Y-98943109D01*
X109096225Y-98942892D01*
X108866429Y-99037842D01*
X108690460Y-99213504D01*
X108595109Y-99443134D01*
X108594892Y-99691775D01*
X108645000Y-99813045D01*
X108645000Y-100965000D01*
X108677173Y-101126746D01*
X108688769Y-101185043D01*
X108813414Y-101371586D01*
X109448414Y-102006587D01*
X109603383Y-102110134D01*
X109634957Y-102131231D01*
X109855000Y-102175000D01*
X111572621Y-102175000D01*
X111305142Y-102228205D01*
X110919533Y-102485861D01*
X110661877Y-102871470D01*
X110571400Y-103326328D01*
X110571400Y-103683672D01*
X110661877Y-104138530D01*
X110919533Y-104524139D01*
X111305142Y-104781795D01*
X111760000Y-104872272D01*
X112214858Y-104781795D01*
X112600467Y-104524139D01*
X112858123Y-104138530D01*
X112948600Y-103683672D01*
X112948600Y-103326328D01*
X112858123Y-102871470D01*
X112600467Y-102485861D01*
X112214858Y-102228205D01*
X111947379Y-102175000D01*
X114112621Y-102175000D01*
X113845142Y-102228205D01*
X113459533Y-102485861D01*
X113201877Y-102871470D01*
X113111400Y-103326328D01*
X113111400Y-103683672D01*
X113201877Y-104138530D01*
X113459533Y-104524139D01*
X113845142Y-104781795D01*
X114300000Y-104872272D01*
X114754858Y-104781795D01*
X115140467Y-104524139D01*
X115398123Y-104138530D01*
X115488600Y-103683672D01*
X115488600Y-103326328D01*
X115398123Y-102871470D01*
X115140467Y-102485861D01*
X114754858Y-102228205D01*
X114487379Y-102175000D01*
X116652621Y-102175000D01*
X116385142Y-102228205D01*
X115999533Y-102485861D01*
X115741877Y-102871470D01*
X115651400Y-103326328D01*
X115651400Y-103683672D01*
X115741877Y-104138530D01*
X115999533Y-104524139D01*
X116385142Y-104781795D01*
X116840000Y-104872272D01*
X117294858Y-104781795D01*
X117680467Y-104524139D01*
X117938123Y-104138530D01*
X118028600Y-103683672D01*
X118028600Y-103326328D01*
X117938123Y-102871470D01*
X117680467Y-102485861D01*
X117294858Y-102228205D01*
X117027379Y-102175000D01*
X119192621Y-102175000D01*
X118925142Y-102228205D01*
X118539533Y-102485861D01*
X118281877Y-102871470D01*
X118191400Y-103326328D01*
X118191400Y-103683672D01*
X118281877Y-104138530D01*
X118539533Y-104524139D01*
X118925142Y-104781795D01*
X119380000Y-104872272D01*
X119834858Y-104781795D01*
X120220467Y-104524139D01*
X120478123Y-104138530D01*
X120568600Y-103683672D01*
X120568600Y-103326328D01*
X120478123Y-102871470D01*
X120220467Y-102485861D01*
X119834858Y-102228205D01*
X119567379Y-102175000D01*
X121732621Y-102175000D01*
X121465142Y-102228205D01*
X121079533Y-102485861D01*
X120821877Y-102871470D01*
X120731400Y-103326328D01*
X120731400Y-103683672D01*
X120821877Y-104138530D01*
X121079533Y-104524139D01*
X121465142Y-104781795D01*
X121920000Y-104872272D01*
X122374858Y-104781795D01*
X122760467Y-104524139D01*
X123018123Y-104138530D01*
X123108600Y-103683672D01*
X123108600Y-103326328D01*
X123018123Y-102871470D01*
X122760467Y-102485861D01*
X122374858Y-102228205D01*
X122107379Y-102175000D01*
X124272621Y-102175000D01*
X124005142Y-102228205D01*
X123619533Y-102485861D01*
X123361877Y-102871470D01*
X123271400Y-103326328D01*
X123271400Y-103683672D01*
X123361877Y-104138530D01*
X123619533Y-104524139D01*
X124005142Y-104781795D01*
X124460000Y-104872272D01*
X124914858Y-104781795D01*
X125300467Y-104524139D01*
X125558123Y-104138530D01*
X125648600Y-103683672D01*
X125648600Y-103326328D01*
X125558123Y-102871470D01*
X125300467Y-102485861D01*
X124914858Y-102228205D01*
X124647379Y-102175000D01*
X126812621Y-102175000D01*
X126545142Y-102228205D01*
X126159533Y-102485861D01*
X125901877Y-102871470D01*
X125811400Y-103326328D01*
X125811400Y-103683672D01*
X125901877Y-104138530D01*
X126159533Y-104524139D01*
X126545142Y-104781795D01*
X127000000Y-104872272D01*
X127454858Y-104781795D01*
X127840467Y-104524139D01*
X128098123Y-104138530D01*
X128188600Y-103683672D01*
X128188600Y-103326328D01*
X128098123Y-102871470D01*
X127840467Y-102485861D01*
X127454858Y-102228205D01*
X127187379Y-102175000D01*
X128584102Y-102175000D01*
X128555962Y-102180295D01*
X128445347Y-102251474D01*
X128371140Y-102360080D01*
X128345033Y-102489000D01*
X128345033Y-104521000D01*
X128367695Y-104641438D01*
X128438874Y-104752053D01*
X128547480Y-104826260D01*
X128676400Y-104852367D01*
X130403600Y-104852367D01*
X130524038Y-104829705D01*
X130634653Y-104758526D01*
X130708860Y-104649920D01*
X130734967Y-104521000D01*
X130734967Y-102489000D01*
X130712305Y-102368562D01*
X130641126Y-102257947D01*
X130532520Y-102183740D01*
X130489361Y-102175000D01*
X133111828Y-102175000D01*
X134294161Y-103357334D01*
X134343842Y-103477571D01*
X134519504Y-103653540D01*
X134640688Y-103703860D01*
X135737413Y-104800586D01*
X135923957Y-104925231D01*
X136144000Y-104969000D01*
X152908000Y-104969000D01*
X153128043Y-104925231D01*
X153314586Y-104800586D01*
X155686173Y-102429000D01*
X156724631Y-102429000D01*
X156639533Y-102485861D01*
X156381877Y-102871470D01*
X156291400Y-103326328D01*
X156291400Y-103683672D01*
X156381877Y-104138530D01*
X156639533Y-104524139D01*
X157025142Y-104781795D01*
X157480000Y-104872272D01*
X157934858Y-104781795D01*
X158320467Y-104524139D01*
X158578123Y-104138530D01*
X158668600Y-103683672D01*
X158668600Y-103326328D01*
X158578123Y-102871470D01*
X158320467Y-102485861D01*
X158235369Y-102429000D01*
X159264631Y-102429000D01*
X159179533Y-102485861D01*
X158921877Y-102871470D01*
X158831400Y-103326328D01*
X158831400Y-103683672D01*
X158921877Y-104138530D01*
X159179533Y-104524139D01*
X159565142Y-104781795D01*
X160020000Y-104872272D01*
X160474858Y-104781795D01*
X160860467Y-104524139D01*
X161118123Y-104138530D01*
X161208600Y-103683672D01*
X161208600Y-103326328D01*
X161118123Y-102871470D01*
X160860467Y-102485861D01*
X160775369Y-102429000D01*
X161804631Y-102429000D01*
X161719533Y-102485861D01*
X161461877Y-102871470D01*
X161371400Y-103326328D01*
X161371400Y-103683672D01*
X161461877Y-104138530D01*
X161719533Y-104524139D01*
X162105142Y-104781795D01*
X162560000Y-104872272D01*
X163014858Y-104781795D01*
X163400467Y-104524139D01*
X163658123Y-104138530D01*
X163748600Y-103683672D01*
X163748600Y-103326328D01*
X163658123Y-102871470D01*
X163400467Y-102485861D01*
X163315369Y-102429000D01*
X164344631Y-102429000D01*
X164259533Y-102485861D01*
X164001877Y-102871470D01*
X163911400Y-103326328D01*
X163911400Y-103683672D01*
X164001877Y-104138530D01*
X164259533Y-104524139D01*
X164645142Y-104781795D01*
X165100000Y-104872272D01*
X165554858Y-104781795D01*
X165940467Y-104524139D01*
X166198123Y-104138530D01*
X166288600Y-103683672D01*
X166288600Y-103326328D01*
X166198123Y-102871470D01*
X165940467Y-102485861D01*
X165855369Y-102429000D01*
X166884631Y-102429000D01*
X166799533Y-102485861D01*
X166541877Y-102871470D01*
X166451400Y-103326328D01*
X166451400Y-103683672D01*
X166541877Y-104138530D01*
X166799533Y-104524139D01*
X167185142Y-104781795D01*
X167640000Y-104872272D01*
X168094858Y-104781795D01*
X168480467Y-104524139D01*
X168738123Y-104138530D01*
X168828600Y-103683672D01*
X168828600Y-103326328D01*
X168738123Y-102871470D01*
X168480467Y-102485861D01*
X168395369Y-102429000D01*
X169424631Y-102429000D01*
X169339533Y-102485861D01*
X169081877Y-102871470D01*
X168991400Y-103326328D01*
X168991400Y-103683672D01*
X169081877Y-104138530D01*
X169339533Y-104524139D01*
X169725142Y-104781795D01*
X170180000Y-104872272D01*
X170634858Y-104781795D01*
X171020467Y-104524139D01*
X171278123Y-104138530D01*
X171368600Y-103683672D01*
X171368600Y-103326328D01*
X171278123Y-102871470D01*
X171020467Y-102485861D01*
X170935369Y-102429000D01*
X171964631Y-102429000D01*
X171879533Y-102485861D01*
X171621877Y-102871470D01*
X171531400Y-103326328D01*
X171531400Y-103683672D01*
X171621877Y-104138530D01*
X171879533Y-104524139D01*
X172265142Y-104781795D01*
X172720000Y-104872272D01*
X173174858Y-104781795D01*
X173560467Y-104524139D01*
X173818123Y-104138530D01*
X173908600Y-103683672D01*
X173908600Y-103326328D01*
X173818123Y-102871470D01*
X173560467Y-102485861D01*
X173475369Y-102429000D01*
X174077183Y-102429000D01*
X174065033Y-102489000D01*
X174065033Y-104521000D01*
X174087695Y-104641438D01*
X174158874Y-104752053D01*
X174267480Y-104826260D01*
X174396400Y-104852367D01*
X176123600Y-104852367D01*
X176244038Y-104829705D01*
X176354653Y-104758526D01*
X176428860Y-104649920D01*
X176454967Y-104521000D01*
X176454967Y-102489000D01*
X176443677Y-102429000D01*
X184664631Y-102429000D01*
X184579533Y-102485861D01*
X184321877Y-102871470D01*
X184231400Y-103326328D01*
X184231400Y-103683672D01*
X184321877Y-104138530D01*
X184579533Y-104524139D01*
X184965142Y-104781795D01*
X185420000Y-104872272D01*
X185874858Y-104781795D01*
X186260467Y-104524139D01*
X186518123Y-104138530D01*
X186608600Y-103683672D01*
X186608600Y-103326328D01*
X186771400Y-103326328D01*
X186771400Y-103683672D01*
X186861877Y-104138530D01*
X187119533Y-104524139D01*
X187505142Y-104781795D01*
X187960000Y-104872272D01*
X188414858Y-104781795D01*
X188800467Y-104524139D01*
X189058123Y-104138530D01*
X189148600Y-103683672D01*
X189148600Y-103326328D01*
X189311400Y-103326328D01*
X189311400Y-103683672D01*
X189401877Y-104138530D01*
X189659533Y-104524139D01*
X190045142Y-104781795D01*
X190500000Y-104872272D01*
X190954858Y-104781795D01*
X191340467Y-104524139D01*
X191598123Y-104138530D01*
X191688600Y-103683672D01*
X191688600Y-103326328D01*
X191598123Y-102871470D01*
X191342565Y-102489000D01*
X191845033Y-102489000D01*
X191845033Y-104521000D01*
X191867695Y-104641438D01*
X191938874Y-104752053D01*
X192047480Y-104826260D01*
X192176400Y-104852367D01*
X193903600Y-104852367D01*
X194024038Y-104829705D01*
X194134653Y-104758526D01*
X194208860Y-104649920D01*
X194234967Y-104521000D01*
X194234967Y-102489000D01*
X194212305Y-102368562D01*
X194141126Y-102257947D01*
X194032520Y-102183740D01*
X193903600Y-102157633D01*
X192176400Y-102157633D01*
X192055962Y-102180295D01*
X191945347Y-102251474D01*
X191871140Y-102360080D01*
X191845033Y-102489000D01*
X191342565Y-102489000D01*
X191340467Y-102485861D01*
X190954858Y-102228205D01*
X190500000Y-102137728D01*
X190045142Y-102228205D01*
X189659533Y-102485861D01*
X189401877Y-102871470D01*
X189311400Y-103326328D01*
X189148600Y-103326328D01*
X189058123Y-102871470D01*
X188800467Y-102485861D01*
X188414858Y-102228205D01*
X187960000Y-102137728D01*
X187505142Y-102228205D01*
X187119533Y-102485861D01*
X186861877Y-102871470D01*
X186771400Y-103326328D01*
X186608600Y-103326328D01*
X186518123Y-102871470D01*
X186260467Y-102485861D01*
X186175369Y-102429000D01*
X186944000Y-102429000D01*
X187164043Y-102385231D01*
X187350586Y-102260586D01*
X188366586Y-101244586D01*
X188491231Y-101058043D01*
X188496013Y-101034000D01*
X188535000Y-100838000D01*
X188535000Y-99559017D01*
X188584891Y-99438866D01*
X188585108Y-99190225D01*
X188535000Y-99068955D01*
X188535000Y-90882367D01*
X188823600Y-90882367D01*
X188944038Y-90859705D01*
X189054653Y-90788526D01*
X189128860Y-90679920D01*
X189154967Y-90551000D01*
X189154967Y-88519000D01*
X189132305Y-88398562D01*
X189061126Y-88287947D01*
X188952520Y-88213740D01*
X188823600Y-88187633D01*
X188535000Y-88187633D01*
X188535000Y-87233172D01*
X188960173Y-86808000D01*
X192659000Y-86808000D01*
X192879043Y-86764231D01*
X193065586Y-86639586D01*
X193446586Y-86258587D01*
X193571231Y-86072043D01*
X193582984Y-86012957D01*
X193615000Y-85852000D01*
X193615000Y-85802367D01*
X193903600Y-85802367D01*
X194024038Y-85779705D01*
X194134653Y-85708526D01*
X194208860Y-85599920D01*
X194234967Y-85471000D01*
X194234967Y-83439000D01*
X194212305Y-83318562D01*
X194141126Y-83207947D01*
X194032520Y-83133740D01*
X193903600Y-83107633D01*
X192176400Y-83107633D01*
X192055962Y-83130295D01*
X191945347Y-83201474D01*
X191871140Y-83310080D01*
X191845033Y-83439000D01*
X191845033Y-83850350D01*
X191718128Y-83524933D01*
X191327803Y-83117972D01*
X190926728Y-82925000D01*
X195205000Y-82925000D01*
X195205000Y-105035000D01*
X96895000Y-105035000D01*
X96895000Y-84276328D01*
X97871400Y-84276328D01*
X97871400Y-84633672D01*
X97961877Y-85088530D01*
X98219533Y-85474139D01*
X98605142Y-85731795D01*
X99060000Y-85822272D01*
X99514858Y-85731795D01*
X99900467Y-85474139D01*
X100158123Y-85088530D01*
X100248600Y-84633672D01*
X100248600Y-84276328D01*
X100411400Y-84276328D01*
X100411400Y-84633672D01*
X100501877Y-85088530D01*
X100759533Y-85474139D01*
X101145142Y-85731795D01*
X101600000Y-85822272D01*
X102054858Y-85731795D01*
X102440467Y-85474139D01*
X102698123Y-85088530D01*
X102788600Y-84633672D01*
X102788600Y-84276328D01*
X102951400Y-84276328D01*
X102951400Y-84633672D01*
X103041877Y-85088530D01*
X103299533Y-85474139D01*
X103685142Y-85731795D01*
X104140000Y-85822272D01*
X104594858Y-85731795D01*
X104980467Y-85474139D01*
X105238123Y-85088530D01*
X105328600Y-84633672D01*
X105328600Y-84276328D01*
X105238123Y-83821470D01*
X104982565Y-83439000D01*
X105485033Y-83439000D01*
X105485033Y-85471000D01*
X105507695Y-85591438D01*
X105578874Y-85702053D01*
X105687480Y-85776260D01*
X105816400Y-85802367D01*
X107543600Y-85802367D01*
X107664038Y-85779705D01*
X107774653Y-85708526D01*
X107848860Y-85599920D01*
X107874967Y-85471000D01*
X107874967Y-84276328D01*
X110571400Y-84276328D01*
X110571400Y-84633672D01*
X110661877Y-85088530D01*
X110919533Y-85474139D01*
X111305142Y-85731795D01*
X111760000Y-85822272D01*
X112214858Y-85731795D01*
X112600467Y-85474139D01*
X112858123Y-85088530D01*
X112948600Y-84633672D01*
X112948600Y-84276328D01*
X113111400Y-84276328D01*
X113111400Y-84633672D01*
X113201877Y-85088530D01*
X113459533Y-85474139D01*
X113845142Y-85731795D01*
X114300000Y-85822272D01*
X114754858Y-85731795D01*
X115140467Y-85474139D01*
X115398123Y-85088530D01*
X115488600Y-84633672D01*
X115488600Y-84276328D01*
X115651400Y-84276328D01*
X115651400Y-84633672D01*
X115741877Y-85088530D01*
X115999533Y-85474139D01*
X116385142Y-85731795D01*
X116840000Y-85822272D01*
X117294858Y-85731795D01*
X117680467Y-85474139D01*
X117938123Y-85088530D01*
X118028600Y-84633672D01*
X118028600Y-84276328D01*
X118191400Y-84276328D01*
X118191400Y-84633672D01*
X118281877Y-85088530D01*
X118539533Y-85474139D01*
X118925142Y-85731795D01*
X119380000Y-85822272D01*
X119834858Y-85731795D01*
X120220467Y-85474139D01*
X120478123Y-85088530D01*
X120568600Y-84633672D01*
X120568600Y-84276328D01*
X120731400Y-84276328D01*
X120731400Y-84633672D01*
X120821877Y-85088530D01*
X121079533Y-85474139D01*
X121465142Y-85731795D01*
X121920000Y-85822272D01*
X122374858Y-85731795D01*
X122760467Y-85474139D01*
X123018123Y-85088530D01*
X123108600Y-84633672D01*
X123108600Y-84276328D01*
X123271400Y-84276328D01*
X123271400Y-84633672D01*
X123361877Y-85088530D01*
X123619533Y-85474139D01*
X124005142Y-85731795D01*
X124460000Y-85822272D01*
X124914858Y-85731795D01*
X125300467Y-85474139D01*
X125558123Y-85088530D01*
X125648600Y-84633672D01*
X125648600Y-84276328D01*
X125811400Y-84276328D01*
X125811400Y-84633672D01*
X125901877Y-85088530D01*
X126159533Y-85474139D01*
X126545142Y-85731795D01*
X127000000Y-85822272D01*
X127454858Y-85731795D01*
X127840467Y-85474139D01*
X128098123Y-85088530D01*
X128188600Y-84633672D01*
X128188600Y-84276328D01*
X128098123Y-83821470D01*
X127842565Y-83439000D01*
X128345033Y-83439000D01*
X128345033Y-85471000D01*
X128367695Y-85591438D01*
X128438874Y-85702053D01*
X128547480Y-85776260D01*
X128676400Y-85802367D01*
X130403600Y-85802367D01*
X130524038Y-85779705D01*
X130634653Y-85708526D01*
X130708860Y-85599920D01*
X130734967Y-85471000D01*
X130734967Y-83439000D01*
X130712305Y-83318562D01*
X130641126Y-83207947D01*
X130532520Y-83133740D01*
X130403600Y-83107633D01*
X128676400Y-83107633D01*
X128555962Y-83130295D01*
X128445347Y-83201474D01*
X128371140Y-83310080D01*
X128345033Y-83439000D01*
X127842565Y-83439000D01*
X127840467Y-83435861D01*
X127454858Y-83178205D01*
X127000000Y-83087728D01*
X126545142Y-83178205D01*
X126159533Y-83435861D01*
X125901877Y-83821470D01*
X125811400Y-84276328D01*
X125648600Y-84276328D01*
X125558123Y-83821470D01*
X125300467Y-83435861D01*
X124914858Y-83178205D01*
X124460000Y-83087728D01*
X124005142Y-83178205D01*
X123619533Y-83435861D01*
X123361877Y-83821470D01*
X123271400Y-84276328D01*
X123108600Y-84276328D01*
X123018123Y-83821470D01*
X122760467Y-83435861D01*
X122374858Y-83178205D01*
X121920000Y-83087728D01*
X121465142Y-83178205D01*
X121079533Y-83435861D01*
X120821877Y-83821470D01*
X120731400Y-84276328D01*
X120568600Y-84276328D01*
X120478123Y-83821470D01*
X120220467Y-83435861D01*
X119834858Y-83178205D01*
X119380000Y-83087728D01*
X118925142Y-83178205D01*
X118539533Y-83435861D01*
X118281877Y-83821470D01*
X118191400Y-84276328D01*
X118028600Y-84276328D01*
X117938123Y-83821470D01*
X117680467Y-83435861D01*
X117294858Y-83178205D01*
X116840000Y-83087728D01*
X116385142Y-83178205D01*
X115999533Y-83435861D01*
X115741877Y-83821470D01*
X115651400Y-84276328D01*
X115488600Y-84276328D01*
X115398123Y-83821470D01*
X115140467Y-83435861D01*
X114754858Y-83178205D01*
X114300000Y-83087728D01*
X113845142Y-83178205D01*
X113459533Y-83435861D01*
X113201877Y-83821470D01*
X113111400Y-84276328D01*
X112948600Y-84276328D01*
X112858123Y-83821470D01*
X112600467Y-83435861D01*
X112214858Y-83178205D01*
X111760000Y-83087728D01*
X111305142Y-83178205D01*
X110919533Y-83435861D01*
X110661877Y-83821470D01*
X110571400Y-84276328D01*
X107874967Y-84276328D01*
X107874967Y-83439000D01*
X107852305Y-83318562D01*
X107781126Y-83207947D01*
X107672520Y-83133740D01*
X107543600Y-83107633D01*
X105816400Y-83107633D01*
X105695962Y-83130295D01*
X105585347Y-83201474D01*
X105511140Y-83310080D01*
X105485033Y-83439000D01*
X104982565Y-83439000D01*
X104980467Y-83435861D01*
X104594858Y-83178205D01*
X104140000Y-83087728D01*
X103685142Y-83178205D01*
X103299533Y-83435861D01*
X103041877Y-83821470D01*
X102951400Y-84276328D01*
X102788600Y-84276328D01*
X102698123Y-83821470D01*
X102440467Y-83435861D01*
X102054858Y-83178205D01*
X101600000Y-83087728D01*
X101145142Y-83178205D01*
X100759533Y-83435861D01*
X100501877Y-83821470D01*
X100411400Y-84276328D01*
X100248600Y-84276328D01*
X100158123Y-83821470D01*
X99900467Y-83435861D01*
X99514858Y-83178205D01*
X99060000Y-83087728D01*
X98605142Y-83178205D01*
X98219533Y-83435861D01*
X97961877Y-83821470D01*
X97871400Y-84276328D01*
X96895000Y-84276328D01*
X96895000Y-82925000D01*
X152030243Y-82925000D01*
X151870460Y-83084504D01*
X151870460Y-83084504D01*
G37*
X151870460Y-83084504D02*
X151775109Y-83314134D01*
X151774892Y-83562775D01*
X151869842Y-83792571D01*
X152045504Y-83968540D01*
X152166688Y-84018860D01*
X152460000Y-84312173D01*
X152460000Y-85725000D01*
X152485262Y-85852000D01*
X152503769Y-85945043D01*
X152628414Y-86131586D01*
X153136413Y-86639586D01*
X153322957Y-86764231D01*
X153543000Y-86808000D01*
X187213828Y-86808000D01*
X187385000Y-86979173D01*
X187385000Y-88187633D01*
X187096400Y-88187633D01*
X186975962Y-88210295D01*
X186865347Y-88281474D01*
X186791140Y-88390080D01*
X186765033Y-88519000D01*
X186765033Y-90551000D01*
X186787695Y-90671438D01*
X186858874Y-90782053D01*
X186967480Y-90856260D01*
X187096400Y-90882367D01*
X187385000Y-90882367D01*
X187385000Y-99068983D01*
X187335109Y-99189134D01*
X187334892Y-99437775D01*
X187385000Y-99559045D01*
X187385000Y-100599828D01*
X186705828Y-101279000D01*
X176918987Y-101279000D01*
X177010571Y-101241158D01*
X177186540Y-101065496D01*
X177281891Y-100835866D01*
X177281897Y-100829293D01*
X177354802Y-100902198D01*
X177500792Y-100999746D01*
X177673000Y-101034000D01*
X180922103Y-101034000D01*
X181001504Y-101113540D01*
X181231134Y-101208891D01*
X181479775Y-101209108D01*
X181709571Y-101114158D01*
X181885540Y-100938496D01*
X181980891Y-100708866D01*
X181981108Y-100460225D01*
X181971967Y-100438102D01*
X181993134Y-100446891D01*
X182106594Y-100446990D01*
X182307802Y-100648198D01*
X182453792Y-100745746D01*
X182626000Y-100780000D01*
X184986103Y-100780000D01*
X185065504Y-100859540D01*
X185295134Y-100954891D01*
X185543775Y-100955108D01*
X185773571Y-100860158D01*
X185949540Y-100684496D01*
X186044891Y-100454866D01*
X186045108Y-100206225D01*
X185950158Y-99976429D01*
X185774496Y-99800460D01*
X185544866Y-99705109D01*
X185296225Y-99704892D01*
X185066429Y-99799842D01*
X184986131Y-99880000D01*
X182812396Y-99880000D01*
X182743010Y-99810614D01*
X182743108Y-99698225D01*
X182648158Y-99468429D01*
X182472496Y-99292460D01*
X182242866Y-99197109D01*
X181994225Y-99196892D01*
X181764429Y-99291842D01*
X181588460Y-99467504D01*
X181493109Y-99697134D01*
X181492892Y-99945775D01*
X181502033Y-99967898D01*
X181480866Y-99959109D01*
X181232225Y-99958892D01*
X181002429Y-100053842D01*
X180922131Y-100134000D01*
X180664396Y-100134000D01*
X184336396Y-96462000D01*
X185928000Y-96462000D01*
X186100208Y-96427746D01*
X186167194Y-96382987D01*
X186305775Y-96383108D01*
X186535571Y-96288158D01*
X186711540Y-96112496D01*
X186806891Y-95882866D01*
X186807108Y-95634225D01*
X186712158Y-95404429D01*
X186674781Y-95366987D01*
X186813775Y-95367108D01*
X187043571Y-95272158D01*
X187219540Y-95096496D01*
X187314891Y-94866866D01*
X187315108Y-94618225D01*
X187220158Y-94388429D01*
X187065883Y-94233885D01*
X187219540Y-94080496D01*
X187314891Y-93850866D01*
X187315108Y-93602225D01*
X187220158Y-93372429D01*
X187044496Y-93196460D01*
X186814866Y-93101109D01*
X186701406Y-93101010D01*
X184976198Y-91375802D01*
X184923259Y-91340429D01*
X184830208Y-91278254D01*
X184658000Y-91244000D01*
X181864000Y-91244000D01*
X181691792Y-91278254D01*
X181598741Y-91340429D01*
X181545802Y-91375802D01*
X180529802Y-92391802D01*
X180432254Y-92537792D01*
X180398000Y-92710000D01*
X180398000Y-96841604D01*
X178042614Y-99196990D01*
X177930225Y-99196892D01*
X177742000Y-99274665D01*
X177742000Y-98298000D01*
X177707746Y-98125792D01*
X177610198Y-97979802D01*
X172530198Y-92899802D01*
X172488209Y-92871746D01*
X172384208Y-92802254D01*
X172212000Y-92768000D01*
X149443921Y-92768000D01*
X149468891Y-92707866D01*
X149468990Y-92594406D01*
X149665396Y-92398000D01*
X178054000Y-92398000D01*
X178226208Y-92363746D01*
X178372198Y-92266198D01*
X180698683Y-89939713D01*
X181456996Y-89939713D01*
X181661872Y-90465067D01*
X182052197Y-90872028D01*
X182478645Y-91077208D01*
X182701000Y-90975876D01*
X182701000Y-89714000D01*
X181580795Y-89714000D01*
X181456996Y-89939713D01*
X180698683Y-89939713D01*
X180732386Y-89906010D01*
X180844775Y-89906108D01*
X181074571Y-89811158D01*
X181250540Y-89635496D01*
X181345891Y-89405866D01*
X181346108Y-89157225D01*
X181334978Y-89130287D01*
X181456996Y-89130287D01*
X181580795Y-89356000D01*
X182701000Y-89356000D01*
X182701000Y-88094124D01*
X183059000Y-88094124D01*
X183059000Y-89356000D01*
X183079000Y-89356000D01*
X183079000Y-89714000D01*
X183059000Y-89714000D01*
X183059000Y-90975876D01*
X183281355Y-91077208D01*
X183707803Y-90872028D01*
X184098128Y-90465067D01*
X184285361Y-89984953D01*
X184321877Y-90168530D01*
X184579533Y-90554139D01*
X184965142Y-90811795D01*
X185420000Y-90902272D01*
X185874858Y-90811795D01*
X186260467Y-90554139D01*
X186518123Y-90168530D01*
X186608600Y-89713672D01*
X186608600Y-89356328D01*
X186518123Y-88901470D01*
X186260467Y-88515861D01*
X185874858Y-88258205D01*
X185420000Y-88167728D01*
X184965142Y-88258205D01*
X184579533Y-88515861D01*
X184321877Y-88901470D01*
X184285361Y-89085047D01*
X184098128Y-88604933D01*
X183707803Y-88197972D01*
X183281355Y-87992792D01*
X183059000Y-88094124D01*
X182701000Y-88094124D01*
X182478645Y-87992792D01*
X182052197Y-88197972D01*
X181661872Y-88604933D01*
X181456996Y-89130287D01*
X181334978Y-89130287D01*
X181251158Y-88927429D01*
X181075496Y-88751460D01*
X180845866Y-88656109D01*
X180712403Y-88655993D01*
X180732386Y-88636010D01*
X180844775Y-88636108D01*
X181074571Y-88541158D01*
X181250540Y-88365496D01*
X181345891Y-88135866D01*
X181346108Y-87887225D01*
X181251158Y-87657429D01*
X181075496Y-87481460D01*
X180845866Y-87386109D01*
X180597225Y-87385892D01*
X180367429Y-87480842D01*
X180191460Y-87656504D01*
X180096109Y-87886134D01*
X180096010Y-87999594D01*
X177486604Y-90609000D01*
X149479000Y-90609000D01*
X149306793Y-90643253D01*
X149160802Y-90740802D01*
X148832614Y-91068990D01*
X148720225Y-91068892D01*
X148490429Y-91163842D01*
X148314460Y-91339504D01*
X148219109Y-91569134D01*
X148218892Y-91817775D01*
X148313842Y-92047571D01*
X148404617Y-92138504D01*
X148314460Y-92228504D01*
X148219109Y-92458134D01*
X148218892Y-92706775D01*
X148244190Y-92768000D01*
X145161000Y-92768000D01*
X144988792Y-92802254D01*
X144884791Y-92871746D01*
X144842802Y-92899802D01*
X144387614Y-93354990D01*
X144275225Y-93354892D01*
X144045429Y-93449842D01*
X143869460Y-93625504D01*
X143774109Y-93855134D01*
X143773892Y-94103775D01*
X143868842Y-94333571D01*
X144023117Y-94488115D01*
X143869460Y-94641504D01*
X143774109Y-94871134D01*
X143773892Y-95119775D01*
X143868842Y-95349571D01*
X144044504Y-95525540D01*
X144274134Y-95620891D01*
X144522775Y-95621108D01*
X144752571Y-95526158D01*
X144928540Y-95350496D01*
X145023891Y-95120866D01*
X145023990Y-95007406D01*
X145728396Y-94303000D01*
X147534814Y-94303000D01*
X147457109Y-94490134D01*
X147456892Y-94738775D01*
X147534665Y-94927000D01*
X147499897Y-94927000D01*
X147420496Y-94847460D01*
X147190866Y-94752109D01*
X146942225Y-94751892D01*
X146712429Y-94846842D01*
X146536460Y-95022504D01*
X146441109Y-95252134D01*
X146440892Y-95500775D01*
X146535842Y-95730571D01*
X146711504Y-95906540D01*
X146941134Y-96001891D01*
X147189775Y-96002108D01*
X147419571Y-95907158D01*
X147499869Y-95827000D01*
X169746103Y-95827000D01*
X169825504Y-95906540D01*
X170055134Y-96001891D01*
X170303775Y-96002108D01*
X170533571Y-95907158D01*
X170709540Y-95731496D01*
X170804891Y-95501866D01*
X170805108Y-95253225D01*
X170727335Y-95065000D01*
X170889103Y-95065000D01*
X170968504Y-95144540D01*
X171198134Y-95239891D01*
X171446775Y-95240108D01*
X171676571Y-95145158D01*
X171852540Y-94969496D01*
X171947891Y-94739866D01*
X171948108Y-94491225D01*
X171939855Y-94471251D01*
X176207000Y-98738396D01*
X176207000Y-100277103D01*
X176127460Y-100356504D01*
X176032109Y-100586134D01*
X176031892Y-100834775D01*
X176126842Y-101064571D01*
X176302504Y-101240540D01*
X176395126Y-101279000D01*
X165118898Y-101279000D01*
X166331932Y-100065967D01*
X166493775Y-100066108D01*
X166723571Y-99971158D01*
X166899540Y-99795496D01*
X166994891Y-99565866D01*
X166995108Y-99317225D01*
X166900158Y-99087429D01*
X166724496Y-98911460D01*
X166494866Y-98816109D01*
X166246225Y-98815892D01*
X166016429Y-98910842D01*
X165840460Y-99086504D01*
X165745109Y-99316134D01*
X165744967Y-99479134D01*
X164547102Y-100677000D01*
X163180898Y-100677000D01*
X163791931Y-100065967D01*
X163953775Y-100066108D01*
X164183571Y-99971158D01*
X164359540Y-99795496D01*
X164454891Y-99565866D01*
X164455108Y-99317225D01*
X164360158Y-99087429D01*
X164184496Y-98911460D01*
X163954866Y-98816109D01*
X163706225Y-98815892D01*
X163476429Y-98910842D01*
X163300460Y-99086504D01*
X163205109Y-99316134D01*
X163204967Y-99479135D01*
X162515102Y-100169000D01*
X161021898Y-100169000D01*
X161505931Y-99684967D01*
X161667775Y-99685108D01*
X161897571Y-99590158D01*
X162073540Y-99414496D01*
X162168891Y-99184866D01*
X162169108Y-98936225D01*
X162074158Y-98706429D01*
X161898496Y-98530460D01*
X161726402Y-98459000D01*
X168300273Y-98459000D01*
X168379842Y-98651571D01*
X168555504Y-98827540D01*
X168785134Y-98922891D01*
X169033775Y-98923108D01*
X169263571Y-98828158D01*
X169439540Y-98652496D01*
X169534891Y-98422866D01*
X169535108Y-98174225D01*
X169442873Y-97951000D01*
X170516102Y-97951000D01*
X170825033Y-98259932D01*
X170824892Y-98421775D01*
X170919842Y-98651571D01*
X171095504Y-98827540D01*
X171325134Y-98922891D01*
X171573775Y-98923108D01*
X171803571Y-98828158D01*
X171979540Y-98652496D01*
X172074891Y-98422866D01*
X172075108Y-98174225D01*
X171980158Y-97944429D01*
X171804496Y-97768460D01*
X171574866Y-97673109D01*
X171411865Y-97672967D01*
X171181898Y-97443000D01*
X172548102Y-97443000D01*
X173365033Y-98259931D01*
X173364892Y-98421775D01*
X173459842Y-98651571D01*
X173635504Y-98827540D01*
X173865134Y-98922891D01*
X174113775Y-98923108D01*
X174343571Y-98828158D01*
X174519540Y-98652496D01*
X174614891Y-98422866D01*
X174615108Y-98174225D01*
X174520158Y-97944429D01*
X174344496Y-97768460D01*
X174114866Y-97673109D01*
X173951865Y-97672967D01*
X173013449Y-96734551D01*
X172976410Y-96709802D01*
X172878814Y-96644590D01*
X172720000Y-96613000D01*
X149453727Y-96613000D01*
X149374158Y-96420429D01*
X149198496Y-96244460D01*
X148968866Y-96149109D01*
X148720225Y-96148892D01*
X148490429Y-96243842D01*
X148314460Y-96419504D01*
X148219109Y-96649134D01*
X148218892Y-96897775D01*
X148224362Y-96911013D01*
X148085225Y-96910892D01*
X147855429Y-97005842D01*
X147679460Y-97181504D01*
X147605786Y-97358929D01*
X147444866Y-97292109D01*
X147196225Y-97291892D01*
X146966429Y-97386842D01*
X146790460Y-97562504D01*
X146695109Y-97792134D01*
X146694892Y-98040775D01*
X146789842Y-98270571D01*
X146965504Y-98446540D01*
X147195134Y-98541891D01*
X147358134Y-98542033D01*
X147407550Y-98591449D01*
X147487695Y-98645000D01*
X146475898Y-98645000D01*
X142737967Y-94907069D01*
X142738108Y-94745225D01*
X142643158Y-94515429D01*
X142467496Y-94339460D01*
X142237866Y-94244109D01*
X141989225Y-94243892D01*
X141759429Y-94338842D01*
X141583460Y-94514504D01*
X141488109Y-94744134D01*
X141487991Y-94878898D01*
X141481225Y-94878892D01*
X141251429Y-94973842D01*
X141075460Y-95149504D01*
X140980109Y-95379134D01*
X140979892Y-95627775D01*
X141074842Y-95857571D01*
X141238886Y-96021902D01*
X141227225Y-96021892D01*
X140997429Y-96116842D01*
X140821460Y-96292504D01*
X140726109Y-96522134D01*
X140725892Y-96770775D01*
X140792893Y-96932929D01*
X140616429Y-97005842D01*
X140440460Y-97181504D01*
X140345109Y-97411134D01*
X140344991Y-97546009D01*
X140211225Y-97545892D01*
X139981429Y-97640842D01*
X139805460Y-97816504D01*
X139710109Y-98046134D01*
X139709892Y-98294775D01*
X139804842Y-98524571D01*
X139980504Y-98700540D01*
X140210134Y-98795891D01*
X140373135Y-98796033D01*
X142727102Y-101150000D01*
X140172921Y-101150000D01*
X140197891Y-101089866D01*
X140197902Y-101076812D01*
X140210134Y-101081891D01*
X140458775Y-101082108D01*
X140688571Y-100987158D01*
X140864540Y-100811496D01*
X140959891Y-100581866D01*
X140960108Y-100333225D01*
X140865158Y-100103429D01*
X140689496Y-99927460D01*
X140459866Y-99832109D01*
X140346406Y-99832010D01*
X133160198Y-92645802D01*
X133129066Y-92625000D01*
X133014208Y-92548254D01*
X132842000Y-92514000D01*
X115883396Y-92514000D01*
X115132396Y-91763000D01*
X146119989Y-91763000D01*
X146258792Y-91855746D01*
X146431000Y-91890000D01*
X146886103Y-91890000D01*
X146965504Y-91969540D01*
X147195134Y-92064891D01*
X147443775Y-92065108D01*
X147673571Y-91970158D01*
X147849540Y-91794496D01*
X147944891Y-91564866D01*
X147945108Y-91316225D01*
X147850158Y-91086429D01*
X147674496Y-90910460D01*
X147444866Y-90815109D01*
X147436991Y-90815102D01*
X147437108Y-90681225D01*
X147342158Y-90451429D01*
X147166496Y-90275460D01*
X146936866Y-90180109D01*
X146928991Y-90180102D01*
X146929108Y-90046225D01*
X146834158Y-89816429D01*
X146658496Y-89640460D01*
X146428866Y-89545109D01*
X146420991Y-89545102D01*
X146421108Y-89411225D01*
X146326158Y-89181429D01*
X146150496Y-89005460D01*
X145920866Y-88910109D01*
X145672225Y-88909892D01*
X145442429Y-89004842D01*
X145266460Y-89180504D01*
X145200647Y-89339000D01*
X135167186Y-89339000D01*
X135244891Y-89151866D01*
X135245108Y-88903225D01*
X135150158Y-88673429D01*
X135029939Y-88553000D01*
X135167164Y-88553000D01*
X135281504Y-88667540D01*
X135511134Y-88762891D01*
X135759775Y-88763108D01*
X135989571Y-88668158D01*
X136165540Y-88492496D01*
X136260891Y-88262866D01*
X136261108Y-88014225D01*
X136166158Y-87784429D01*
X135990496Y-87608460D01*
X135760866Y-87513109D01*
X135512225Y-87512892D01*
X135282429Y-87607842D01*
X135167070Y-87723000D01*
X126198836Y-87723000D01*
X126084496Y-87608460D01*
X125854866Y-87513109D01*
X125606225Y-87512892D01*
X125376429Y-87607842D01*
X125200460Y-87783504D01*
X125105109Y-88013134D01*
X125104892Y-88261775D01*
X125199842Y-88491571D01*
X125375504Y-88667540D01*
X125605134Y-88762891D01*
X125853775Y-88763108D01*
X126083571Y-88668158D01*
X126198930Y-88553000D01*
X127987173Y-88553000D01*
X127867460Y-88672504D01*
X127772109Y-88902134D01*
X127771892Y-89150775D01*
X127849665Y-89339000D01*
X106680000Y-89339000D01*
X106507792Y-89373254D01*
X106361802Y-89470802D01*
X98741802Y-97090802D01*
X98644254Y-97236792D01*
X98610000Y-97409000D01*
X98610000Y-102227239D01*
X98605142Y-102228205D01*
X98219533Y-102485861D01*
X97961877Y-102871470D01*
X97871400Y-103326328D01*
X97871400Y-103683672D01*
X97961877Y-104138530D01*
X98219533Y-104524139D01*
X98605142Y-104781795D01*
X99060000Y-104872272D01*
X99514858Y-104781795D01*
X99900467Y-104524139D01*
X100158123Y-104138530D01*
X100248600Y-103683672D01*
X100248600Y-103326328D01*
X100158123Y-102871470D01*
X99900467Y-102485861D01*
X99514858Y-102228205D01*
X99510000Y-102227239D01*
X99510000Y-97595396D01*
X101150000Y-95955396D01*
X101150000Y-102227239D01*
X101145142Y-102228205D01*
X100759533Y-102485861D01*
X100501877Y-102871470D01*
X100411400Y-103326328D01*
X100411400Y-103683672D01*
X100501877Y-104138530D01*
X100759533Y-104524139D01*
X101145142Y-104781795D01*
X101600000Y-104872272D01*
X102054858Y-104781795D01*
X102440467Y-104524139D01*
X102698123Y-104138530D01*
X102788600Y-103683672D01*
X102788600Y-103326328D01*
X102698123Y-102871470D01*
X102440467Y-102485861D01*
X102054858Y-102228205D01*
X102050000Y-102227239D01*
X102050000Y-95944396D01*
X103690000Y-94304396D01*
X103690000Y-102227239D01*
X103685142Y-102228205D01*
X103299533Y-102485861D01*
X103041877Y-102871470D01*
X102951400Y-103326328D01*
X102951400Y-103683672D01*
X103041877Y-104138530D01*
X103299533Y-104524139D01*
X103685142Y-104781795D01*
X104140000Y-104872272D01*
X104594858Y-104781795D01*
X104980467Y-104524139D01*
X105238123Y-104138530D01*
X105328600Y-103683672D01*
X105328600Y-103326328D01*
X105238123Y-102871470D01*
X104980467Y-102485861D01*
X104594858Y-102228205D01*
X104590000Y-102227239D01*
X104590000Y-94293396D01*
X106230000Y-92653396D01*
X106230000Y-102157633D01*
X105816400Y-102157633D01*
X105695962Y-102180295D01*
X105585347Y-102251474D01*
X105511140Y-102360080D01*
X105485033Y-102489000D01*
X105485033Y-104521000D01*
X105507695Y-104641438D01*
X105578874Y-104752053D01*
X105687480Y-104826260D01*
X105816400Y-104852367D01*
X107543600Y-104852367D01*
X107664038Y-104829705D01*
X107774653Y-104758526D01*
X107848860Y-104649920D01*
X107874967Y-104521000D01*
X107874967Y-102489000D01*
X107852305Y-102368562D01*
X107781126Y-102257947D01*
X107672520Y-102183740D01*
X107543600Y-102157633D01*
X107130000Y-102157633D01*
X107130000Y-94952752D01*
X107497398Y-95502602D01*
X108186798Y-95963244D01*
X108457843Y-96017158D01*
X108436460Y-96038504D01*
X108341109Y-96268134D01*
X108340892Y-96516775D01*
X108435842Y-96746571D01*
X108611504Y-96922540D01*
X108841134Y-97017891D01*
X109089775Y-97018108D01*
X109319571Y-96923158D01*
X109399869Y-96843000D01*
X132147604Y-96843000D01*
X137857802Y-102553198D01*
X138003792Y-102650746D01*
X138176000Y-102685000D01*
X139139103Y-102685000D01*
X139218504Y-102764540D01*
X139448134Y-102859891D01*
X139696775Y-102860108D01*
X139926571Y-102765158D01*
X140102540Y-102589496D01*
X140197891Y-102359866D01*
X140198108Y-102111225D01*
X140172810Y-102050000D01*
X143475210Y-102050000D01*
X143487842Y-102080571D01*
X143663504Y-102256540D01*
X143893134Y-102351891D01*
X144141775Y-102352108D01*
X144371571Y-102257158D01*
X144547540Y-102081496D01*
X144642891Y-101851866D01*
X144643108Y-101603225D01*
X144603349Y-101507000D01*
X154981827Y-101507000D01*
X152669828Y-103819000D01*
X136382173Y-103819000D01*
X135453840Y-102890668D01*
X135404158Y-102770429D01*
X135228496Y-102594460D01*
X135107313Y-102544140D01*
X133756586Y-101193414D01*
X133570043Y-101068769D01*
X133548938Y-101064571D01*
X133350000Y-101025000D01*
X110093173Y-101025000D01*
X109795000Y-100726828D01*
X109795000Y-99813017D01*
X109844891Y-99692866D01*
X109845108Y-99444225D01*
X109750158Y-99214429D01*
X109574496Y-99038460D01*
X109344866Y-98943109D01*
X109096225Y-98942892D01*
X108866429Y-99037842D01*
X108690460Y-99213504D01*
X108595109Y-99443134D01*
X108594892Y-99691775D01*
X108645000Y-99813045D01*
X108645000Y-100965000D01*
X108677173Y-101126746D01*
X108688769Y-101185043D01*
X108813414Y-101371586D01*
X109448414Y-102006587D01*
X109603383Y-102110134D01*
X109634957Y-102131231D01*
X109855000Y-102175000D01*
X111572621Y-102175000D01*
X111305142Y-102228205D01*
X110919533Y-102485861D01*
X110661877Y-102871470D01*
X110571400Y-103326328D01*
X110571400Y-103683672D01*
X110661877Y-104138530D01*
X110919533Y-104524139D01*
X111305142Y-104781795D01*
X111760000Y-104872272D01*
X112214858Y-104781795D01*
X112600467Y-104524139D01*
X112858123Y-104138530D01*
X112948600Y-103683672D01*
X112948600Y-103326328D01*
X112858123Y-102871470D01*
X112600467Y-102485861D01*
X112214858Y-102228205D01*
X111947379Y-102175000D01*
X114112621Y-102175000D01*
X113845142Y-102228205D01*
X113459533Y-102485861D01*
X113201877Y-102871470D01*
X113111400Y-103326328D01*
X113111400Y-103683672D01*
X113201877Y-104138530D01*
X113459533Y-104524139D01*
X113845142Y-104781795D01*
X114300000Y-104872272D01*
X114754858Y-104781795D01*
X115140467Y-104524139D01*
X115398123Y-104138530D01*
X115488600Y-103683672D01*
X115488600Y-103326328D01*
X115398123Y-102871470D01*
X115140467Y-102485861D01*
X114754858Y-102228205D01*
X114487379Y-102175000D01*
X116652621Y-102175000D01*
X116385142Y-102228205D01*
X115999533Y-102485861D01*
X115741877Y-102871470D01*
X115651400Y-103326328D01*
X115651400Y-103683672D01*
X115741877Y-104138530D01*
X115999533Y-104524139D01*
X116385142Y-104781795D01*
X116840000Y-104872272D01*
X117294858Y-104781795D01*
X117680467Y-104524139D01*
X117938123Y-104138530D01*
X118028600Y-103683672D01*
X118028600Y-103326328D01*
X117938123Y-102871470D01*
X117680467Y-102485861D01*
X117294858Y-102228205D01*
X117027379Y-102175000D01*
X119192621Y-102175000D01*
X118925142Y-102228205D01*
X118539533Y-102485861D01*
X118281877Y-102871470D01*
X118191400Y-103326328D01*
X118191400Y-103683672D01*
X118281877Y-104138530D01*
X118539533Y-104524139D01*
X118925142Y-104781795D01*
X119380000Y-104872272D01*
X119834858Y-104781795D01*
X120220467Y-104524139D01*
X120478123Y-104138530D01*
X120568600Y-103683672D01*
X120568600Y-103326328D01*
X120478123Y-102871470D01*
X120220467Y-102485861D01*
X119834858Y-102228205D01*
X119567379Y-102175000D01*
X121732621Y-102175000D01*
X121465142Y-102228205D01*
X121079533Y-102485861D01*
X120821877Y-102871470D01*
X120731400Y-103326328D01*
X120731400Y-103683672D01*
X120821877Y-104138530D01*
X121079533Y-104524139D01*
X121465142Y-104781795D01*
X121920000Y-104872272D01*
X122374858Y-104781795D01*
X122760467Y-104524139D01*
X123018123Y-104138530D01*
X123108600Y-103683672D01*
X123108600Y-103326328D01*
X123018123Y-102871470D01*
X122760467Y-102485861D01*
X122374858Y-102228205D01*
X122107379Y-102175000D01*
X124272621Y-102175000D01*
X124005142Y-102228205D01*
X123619533Y-102485861D01*
X123361877Y-102871470D01*
X123271400Y-103326328D01*
X123271400Y-103683672D01*
X123361877Y-104138530D01*
X123619533Y-104524139D01*
X124005142Y-104781795D01*
X124460000Y-104872272D01*
X124914858Y-104781795D01*
X125300467Y-104524139D01*
X125558123Y-104138530D01*
X125648600Y-103683672D01*
X125648600Y-103326328D01*
X125558123Y-102871470D01*
X125300467Y-102485861D01*
X124914858Y-102228205D01*
X124647379Y-102175000D01*
X126812621Y-102175000D01*
X126545142Y-102228205D01*
X126159533Y-102485861D01*
X125901877Y-102871470D01*
X125811400Y-103326328D01*
X125811400Y-103683672D01*
X125901877Y-104138530D01*
X126159533Y-104524139D01*
X126545142Y-104781795D01*
X127000000Y-104872272D01*
X127454858Y-104781795D01*
X127840467Y-104524139D01*
X128098123Y-104138530D01*
X128188600Y-103683672D01*
X128188600Y-103326328D01*
X128098123Y-102871470D01*
X127840467Y-102485861D01*
X127454858Y-102228205D01*
X127187379Y-102175000D01*
X128584102Y-102175000D01*
X128555962Y-102180295D01*
X128445347Y-102251474D01*
X128371140Y-102360080D01*
X128345033Y-102489000D01*
X128345033Y-104521000D01*
X128367695Y-104641438D01*
X128438874Y-104752053D01*
X128547480Y-104826260D01*
X128676400Y-104852367D01*
X130403600Y-104852367D01*
X130524038Y-104829705D01*
X130634653Y-104758526D01*
X130708860Y-104649920D01*
X130734967Y-104521000D01*
X130734967Y-102489000D01*
X130712305Y-102368562D01*
X130641126Y-102257947D01*
X130532520Y-102183740D01*
X130489361Y-102175000D01*
X133111828Y-102175000D01*
X134294161Y-103357334D01*
X134343842Y-103477571D01*
X134519504Y-103653540D01*
X134640688Y-103703860D01*
X135737413Y-104800586D01*
X135923957Y-104925231D01*
X136144000Y-104969000D01*
X152908000Y-104969000D01*
X153128043Y-104925231D01*
X153314586Y-104800586D01*
X155686173Y-102429000D01*
X156724631Y-102429000D01*
X156639533Y-102485861D01*
X156381877Y-102871470D01*
X156291400Y-103326328D01*
X156291400Y-103683672D01*
X156381877Y-104138530D01*
X156639533Y-104524139D01*
X157025142Y-104781795D01*
X157480000Y-104872272D01*
X157934858Y-104781795D01*
X158320467Y-104524139D01*
X158578123Y-104138530D01*
X158668600Y-103683672D01*
X158668600Y-103326328D01*
X158578123Y-102871470D01*
X158320467Y-102485861D01*
X158235369Y-102429000D01*
X159264631Y-102429000D01*
X159179533Y-102485861D01*
X158921877Y-102871470D01*
X158831400Y-103326328D01*
X158831400Y-103683672D01*
X158921877Y-104138530D01*
X159179533Y-104524139D01*
X159565142Y-104781795D01*
X160020000Y-104872272D01*
X160474858Y-104781795D01*
X160860467Y-104524139D01*
X161118123Y-104138530D01*
X161208600Y-103683672D01*
X161208600Y-103326328D01*
X161118123Y-102871470D01*
X160860467Y-102485861D01*
X160775369Y-102429000D01*
X161804631Y-102429000D01*
X161719533Y-102485861D01*
X161461877Y-102871470D01*
X161371400Y-103326328D01*
X161371400Y-103683672D01*
X161461877Y-104138530D01*
X161719533Y-104524139D01*
X162105142Y-104781795D01*
X162560000Y-104872272D01*
X163014858Y-104781795D01*
X163400467Y-104524139D01*
X163658123Y-104138530D01*
X163748600Y-103683672D01*
X163748600Y-103326328D01*
X163658123Y-102871470D01*
X163400467Y-102485861D01*
X163315369Y-102429000D01*
X164344631Y-102429000D01*
X164259533Y-102485861D01*
X164001877Y-102871470D01*
X163911400Y-103326328D01*
X163911400Y-103683672D01*
X164001877Y-104138530D01*
X164259533Y-104524139D01*
X164645142Y-104781795D01*
X165100000Y-104872272D01*
X165554858Y-104781795D01*
X165940467Y-104524139D01*
X166198123Y-104138530D01*
X166288600Y-103683672D01*
X166288600Y-103326328D01*
X166198123Y-102871470D01*
X165940467Y-102485861D01*
X165855369Y-102429000D01*
X166884631Y-102429000D01*
X166799533Y-102485861D01*
X166541877Y-102871470D01*
X166451400Y-103326328D01*
X166451400Y-103683672D01*
X166541877Y-104138530D01*
X166799533Y-104524139D01*
X167185142Y-104781795D01*
X167640000Y-104872272D01*
X168094858Y-104781795D01*
X168480467Y-104524139D01*
X168738123Y-104138530D01*
X168828600Y-103683672D01*
X168828600Y-103326328D01*
X168738123Y-102871470D01*
X168480467Y-102485861D01*
X168395369Y-102429000D01*
X169424631Y-102429000D01*
X169339533Y-102485861D01*
X169081877Y-102871470D01*
X168991400Y-103326328D01*
X168991400Y-103683672D01*
X169081877Y-104138530D01*
X169339533Y-104524139D01*
X169725142Y-104781795D01*
X170180000Y-104872272D01*
X170634858Y-104781795D01*
X171020467Y-104524139D01*
X171278123Y-104138530D01*
X171368600Y-103683672D01*
X171368600Y-103326328D01*
X171278123Y-102871470D01*
X171020467Y-102485861D01*
X170935369Y-102429000D01*
X171964631Y-102429000D01*
X171879533Y-102485861D01*
X171621877Y-102871470D01*
X171531400Y-103326328D01*
X171531400Y-103683672D01*
X171621877Y-104138530D01*
X171879533Y-104524139D01*
X172265142Y-104781795D01*
X172720000Y-104872272D01*
X173174858Y-104781795D01*
X173560467Y-104524139D01*
X173818123Y-104138530D01*
X173908600Y-103683672D01*
X173908600Y-103326328D01*
X173818123Y-102871470D01*
X173560467Y-102485861D01*
X173475369Y-102429000D01*
X174077183Y-102429000D01*
X174065033Y-102489000D01*
X174065033Y-104521000D01*
X174087695Y-104641438D01*
X174158874Y-104752053D01*
X174267480Y-104826260D01*
X174396400Y-104852367D01*
X176123600Y-104852367D01*
X176244038Y-104829705D01*
X176354653Y-104758526D01*
X176428860Y-104649920D01*
X176454967Y-104521000D01*
X176454967Y-102489000D01*
X176443677Y-102429000D01*
X184664631Y-102429000D01*
X184579533Y-102485861D01*
X184321877Y-102871470D01*
X184231400Y-103326328D01*
X184231400Y-103683672D01*
X184321877Y-104138530D01*
X184579533Y-104524139D01*
X184965142Y-104781795D01*
X185420000Y-104872272D01*
X185874858Y-104781795D01*
X186260467Y-104524139D01*
X186518123Y-104138530D01*
X186608600Y-103683672D01*
X186608600Y-103326328D01*
X186771400Y-103326328D01*
X186771400Y-103683672D01*
X186861877Y-104138530D01*
X187119533Y-104524139D01*
X187505142Y-104781795D01*
X187960000Y-104872272D01*
X188414858Y-104781795D01*
X188800467Y-104524139D01*
X189058123Y-104138530D01*
X189148600Y-103683672D01*
X189148600Y-103326328D01*
X189311400Y-103326328D01*
X189311400Y-103683672D01*
X189401877Y-104138530D01*
X189659533Y-104524139D01*
X190045142Y-104781795D01*
X190500000Y-104872272D01*
X190954858Y-104781795D01*
X191340467Y-104524139D01*
X191598123Y-104138530D01*
X191688600Y-103683672D01*
X191688600Y-103326328D01*
X191598123Y-102871470D01*
X191342565Y-102489000D01*
X191845033Y-102489000D01*
X191845033Y-104521000D01*
X191867695Y-104641438D01*
X191938874Y-104752053D01*
X192047480Y-104826260D01*
X192176400Y-104852367D01*
X193903600Y-104852367D01*
X194024038Y-104829705D01*
X194134653Y-104758526D01*
X194208860Y-104649920D01*
X194234967Y-104521000D01*
X194234967Y-102489000D01*
X194212305Y-102368562D01*
X194141126Y-102257947D01*
X194032520Y-102183740D01*
X193903600Y-102157633D01*
X192176400Y-102157633D01*
X192055962Y-102180295D01*
X191945347Y-102251474D01*
X191871140Y-102360080D01*
X191845033Y-102489000D01*
X191342565Y-102489000D01*
X191340467Y-102485861D01*
X190954858Y-102228205D01*
X190500000Y-102137728D01*
X190045142Y-102228205D01*
X189659533Y-102485861D01*
X189401877Y-102871470D01*
X189311400Y-103326328D01*
X189148600Y-103326328D01*
X189058123Y-102871470D01*
X188800467Y-102485861D01*
X188414858Y-102228205D01*
X187960000Y-102137728D01*
X187505142Y-102228205D01*
X187119533Y-102485861D01*
X186861877Y-102871470D01*
X186771400Y-103326328D01*
X186608600Y-103326328D01*
X186518123Y-102871470D01*
X186260467Y-102485861D01*
X186175369Y-102429000D01*
X186944000Y-102429000D01*
X187164043Y-102385231D01*
X187350586Y-102260586D01*
X188366586Y-101244586D01*
X188491231Y-101058043D01*
X188496013Y-101034000D01*
X188535000Y-100838000D01*
X188535000Y-99559017D01*
X188584891Y-99438866D01*
X188585108Y-99190225D01*
X188535000Y-99068955D01*
X188535000Y-90882367D01*
X188823600Y-90882367D01*
X188944038Y-90859705D01*
X189054653Y-90788526D01*
X189128860Y-90679920D01*
X189154967Y-90551000D01*
X189154967Y-88519000D01*
X189132305Y-88398562D01*
X189061126Y-88287947D01*
X188952520Y-88213740D01*
X188823600Y-88187633D01*
X188535000Y-88187633D01*
X188535000Y-87233172D01*
X188960173Y-86808000D01*
X192659000Y-86808000D01*
X192879043Y-86764231D01*
X193065586Y-86639586D01*
X193446586Y-86258587D01*
X193571231Y-86072043D01*
X193582984Y-86012957D01*
X193615000Y-85852000D01*
X193615000Y-85802367D01*
X193903600Y-85802367D01*
X194024038Y-85779705D01*
X194134653Y-85708526D01*
X194208860Y-85599920D01*
X194234967Y-85471000D01*
X194234967Y-83439000D01*
X194212305Y-83318562D01*
X194141126Y-83207947D01*
X194032520Y-83133740D01*
X193903600Y-83107633D01*
X192176400Y-83107633D01*
X192055962Y-83130295D01*
X191945347Y-83201474D01*
X191871140Y-83310080D01*
X191845033Y-83439000D01*
X191845033Y-83850350D01*
X191718128Y-83524933D01*
X191327803Y-83117972D01*
X190926728Y-82925000D01*
X195205000Y-82925000D01*
X195205000Y-105035000D01*
X96895000Y-105035000D01*
X96895000Y-84276328D01*
X97871400Y-84276328D01*
X97871400Y-84633672D01*
X97961877Y-85088530D01*
X98219533Y-85474139D01*
X98605142Y-85731795D01*
X99060000Y-85822272D01*
X99514858Y-85731795D01*
X99900467Y-85474139D01*
X100158123Y-85088530D01*
X100248600Y-84633672D01*
X100248600Y-84276328D01*
X100411400Y-84276328D01*
X100411400Y-84633672D01*
X100501877Y-85088530D01*
X100759533Y-85474139D01*
X101145142Y-85731795D01*
X101600000Y-85822272D01*
X102054858Y-85731795D01*
X102440467Y-85474139D01*
X102698123Y-85088530D01*
X102788600Y-84633672D01*
X102788600Y-84276328D01*
X102951400Y-84276328D01*
X102951400Y-84633672D01*
X103041877Y-85088530D01*
X103299533Y-85474139D01*
X103685142Y-85731795D01*
X104140000Y-85822272D01*
X104594858Y-85731795D01*
X104980467Y-85474139D01*
X105238123Y-85088530D01*
X105328600Y-84633672D01*
X105328600Y-84276328D01*
X105238123Y-83821470D01*
X104982565Y-83439000D01*
X105485033Y-83439000D01*
X105485033Y-85471000D01*
X105507695Y-85591438D01*
X105578874Y-85702053D01*
X105687480Y-85776260D01*
X105816400Y-85802367D01*
X107543600Y-85802367D01*
X107664038Y-85779705D01*
X107774653Y-85708526D01*
X107848860Y-85599920D01*
X107874967Y-85471000D01*
X107874967Y-84276328D01*
X110571400Y-84276328D01*
X110571400Y-84633672D01*
X110661877Y-85088530D01*
X110919533Y-85474139D01*
X111305142Y-85731795D01*
X111760000Y-85822272D01*
X112214858Y-85731795D01*
X112600467Y-85474139D01*
X112858123Y-85088530D01*
X112948600Y-84633672D01*
X112948600Y-84276328D01*
X113111400Y-84276328D01*
X113111400Y-84633672D01*
X113201877Y-85088530D01*
X113459533Y-85474139D01*
X113845142Y-85731795D01*
X114300000Y-85822272D01*
X114754858Y-85731795D01*
X115140467Y-85474139D01*
X115398123Y-85088530D01*
X115488600Y-84633672D01*
X115488600Y-84276328D01*
X115651400Y-84276328D01*
X115651400Y-84633672D01*
X115741877Y-85088530D01*
X115999533Y-85474139D01*
X116385142Y-85731795D01*
X116840000Y-85822272D01*
X117294858Y-85731795D01*
X117680467Y-85474139D01*
X117938123Y-85088530D01*
X118028600Y-84633672D01*
X118028600Y-84276328D01*
X118191400Y-84276328D01*
X118191400Y-84633672D01*
X118281877Y-85088530D01*
X118539533Y-85474139D01*
X118925142Y-85731795D01*
X119380000Y-85822272D01*
X119834858Y-85731795D01*
X120220467Y-85474139D01*
X120478123Y-85088530D01*
X120568600Y-84633672D01*
X120568600Y-84276328D01*
X120731400Y-84276328D01*
X120731400Y-84633672D01*
X120821877Y-85088530D01*
X121079533Y-85474139D01*
X121465142Y-85731795D01*
X121920000Y-85822272D01*
X122374858Y-85731795D01*
X122760467Y-85474139D01*
X123018123Y-85088530D01*
X123108600Y-84633672D01*
X123108600Y-84276328D01*
X123271400Y-84276328D01*
X123271400Y-84633672D01*
X123361877Y-85088530D01*
X123619533Y-85474139D01*
X124005142Y-85731795D01*
X124460000Y-85822272D01*
X124914858Y-85731795D01*
X125300467Y-85474139D01*
X125558123Y-85088530D01*
X125648600Y-84633672D01*
X125648600Y-84276328D01*
X125811400Y-84276328D01*
X125811400Y-84633672D01*
X125901877Y-85088530D01*
X126159533Y-85474139D01*
X126545142Y-85731795D01*
X127000000Y-85822272D01*
X127454858Y-85731795D01*
X127840467Y-85474139D01*
X128098123Y-85088530D01*
X128188600Y-84633672D01*
X128188600Y-84276328D01*
X128098123Y-83821470D01*
X127842565Y-83439000D01*
X128345033Y-83439000D01*
X128345033Y-85471000D01*
X128367695Y-85591438D01*
X128438874Y-85702053D01*
X128547480Y-85776260D01*
X128676400Y-85802367D01*
X130403600Y-85802367D01*
X130524038Y-85779705D01*
X130634653Y-85708526D01*
X130708860Y-85599920D01*
X130734967Y-85471000D01*
X130734967Y-83439000D01*
X130712305Y-83318562D01*
X130641126Y-83207947D01*
X130532520Y-83133740D01*
X130403600Y-83107633D01*
X128676400Y-83107633D01*
X128555962Y-83130295D01*
X128445347Y-83201474D01*
X128371140Y-83310080D01*
X128345033Y-83439000D01*
X127842565Y-83439000D01*
X127840467Y-83435861D01*
X127454858Y-83178205D01*
X127000000Y-83087728D01*
X126545142Y-83178205D01*
X126159533Y-83435861D01*
X125901877Y-83821470D01*
X125811400Y-84276328D01*
X125648600Y-84276328D01*
X125558123Y-83821470D01*
X125300467Y-83435861D01*
X124914858Y-83178205D01*
X124460000Y-83087728D01*
X124005142Y-83178205D01*
X123619533Y-83435861D01*
X123361877Y-83821470D01*
X123271400Y-84276328D01*
X123108600Y-84276328D01*
X123018123Y-83821470D01*
X122760467Y-83435861D01*
X122374858Y-83178205D01*
X121920000Y-83087728D01*
X121465142Y-83178205D01*
X121079533Y-83435861D01*
X120821877Y-83821470D01*
X120731400Y-84276328D01*
X120568600Y-84276328D01*
X120478123Y-83821470D01*
X120220467Y-83435861D01*
X119834858Y-83178205D01*
X119380000Y-83087728D01*
X118925142Y-83178205D01*
X118539533Y-83435861D01*
X118281877Y-83821470D01*
X118191400Y-84276328D01*
X118028600Y-84276328D01*
X117938123Y-83821470D01*
X117680467Y-83435861D01*
X117294858Y-83178205D01*
X116840000Y-83087728D01*
X116385142Y-83178205D01*
X115999533Y-83435861D01*
X115741877Y-83821470D01*
X115651400Y-84276328D01*
X115488600Y-84276328D01*
X115398123Y-83821470D01*
X115140467Y-83435861D01*
X114754858Y-83178205D01*
X114300000Y-83087728D01*
X113845142Y-83178205D01*
X113459533Y-83435861D01*
X113201877Y-83821470D01*
X113111400Y-84276328D01*
X112948600Y-84276328D01*
X112858123Y-83821470D01*
X112600467Y-83435861D01*
X112214858Y-83178205D01*
X111760000Y-83087728D01*
X111305142Y-83178205D01*
X110919533Y-83435861D01*
X110661877Y-83821470D01*
X110571400Y-84276328D01*
X107874967Y-84276328D01*
X107874967Y-83439000D01*
X107852305Y-83318562D01*
X107781126Y-83207947D01*
X107672520Y-83133740D01*
X107543600Y-83107633D01*
X105816400Y-83107633D01*
X105695962Y-83130295D01*
X105585347Y-83201474D01*
X105511140Y-83310080D01*
X105485033Y-83439000D01*
X104982565Y-83439000D01*
X104980467Y-83435861D01*
X104594858Y-83178205D01*
X104140000Y-83087728D01*
X103685142Y-83178205D01*
X103299533Y-83435861D01*
X103041877Y-83821470D01*
X102951400Y-84276328D01*
X102788600Y-84276328D01*
X102698123Y-83821470D01*
X102440467Y-83435861D01*
X102054858Y-83178205D01*
X101600000Y-83087728D01*
X101145142Y-83178205D01*
X100759533Y-83435861D01*
X100501877Y-83821470D01*
X100411400Y-84276328D01*
X100248600Y-84276328D01*
X100158123Y-83821470D01*
X99900467Y-83435861D01*
X99514858Y-83178205D01*
X99060000Y-83087728D01*
X98605142Y-83178205D01*
X98219533Y-83435861D01*
X97961877Y-83821470D01*
X97871400Y-84276328D01*
X96895000Y-84276328D01*
X96895000Y-82925000D01*
X152030243Y-82925000D01*
X151870460Y-83084504D01*
G36*
X190679000Y-84276000D02*
X190699000Y-84276000D01*
X190699000Y-84634000D01*
X190679000Y-84634000D01*
X190679000Y-84654000D01*
X190321000Y-84654000D01*
X190321000Y-84634000D01*
X190301000Y-84634000D01*
X190301000Y-84276000D01*
X190321000Y-84276000D01*
X190321000Y-84256000D01*
X190679000Y-84256000D01*
X190679000Y-84276000D01*
X190679000Y-84276000D01*
G37*
X190679000Y-84276000D02*
X190699000Y-84276000D01*
X190699000Y-84634000D01*
X190679000Y-84634000D01*
X190679000Y-84654000D01*
X190321000Y-84654000D01*
X190321000Y-84634000D01*
X190301000Y-84634000D01*
X190301000Y-84276000D01*
X190321000Y-84276000D01*
X190321000Y-84256000D01*
X190679000Y-84256000D01*
X190679000Y-84276000D01*
M02*
