G04 #@! TF.FileFunction,Soldermask,Top*
%FSLAX46Y46*%
G04 Gerber Fmt 4.6, Leading zero omitted, Abs format (unit mm)*
G04 Created by KiCad (PCBNEW 4.0.1-stable) date 2017年02月15日水曜日 20:21:17*
%MOMM*%
G01*
G04 APERTURE LIST*
%ADD10C,0.100000*%
%ADD11R,0.750000X1.200000*%
%ADD12R,1.200000X0.750000*%
%ADD13R,1.727200X2.032000*%
%ADD14O,1.727200X2.032000*%
%ADD15R,1.350000X0.400000*%
%ADD16R,2.000000X1.500000*%
%ADD17R,1.900000X2.400000*%
%ADD18R,1.900000X1.300000*%
%ADD19R,0.900000X1.200000*%
%ADD20R,1.500000X0.300000*%
%ADD21R,0.300000X1.500000*%
G04 APERTURE END LIST*
D10*
D11*
X135001000Y-98105000D03*
X135001000Y-96205000D03*
X136525000Y-98105000D03*
X136525000Y-96205000D03*
D12*
X145730000Y-84201000D03*
X143830000Y-84201000D03*
X145730000Y-85725000D03*
X143830000Y-85725000D03*
D11*
X136779000Y-103058000D03*
X136779000Y-101158000D03*
X138303000Y-103058000D03*
X138303000Y-101158000D03*
D12*
X148910000Y-84201000D03*
X150810000Y-84201000D03*
X148910000Y-85725000D03*
X150810000Y-85725000D03*
D11*
X153670000Y-99380000D03*
X153670000Y-101280000D03*
D12*
X152720000Y-88900000D03*
X154620000Y-88900000D03*
D11*
X179705000Y-87188000D03*
X179705000Y-89088000D03*
X188976000Y-95824000D03*
X188976000Y-97724000D03*
D13*
X175260000Y-84455000D03*
D14*
X172720000Y-84455000D03*
X170180000Y-84455000D03*
X167640000Y-84455000D03*
X165100000Y-84455000D03*
X162560000Y-84455000D03*
X160020000Y-84455000D03*
X157480000Y-84455000D03*
D13*
X129540000Y-84455000D03*
D14*
X127000000Y-84455000D03*
X124460000Y-84455000D03*
X121920000Y-84455000D03*
X119380000Y-84455000D03*
X116840000Y-84455000D03*
X114300000Y-84455000D03*
X111760000Y-84455000D03*
D13*
X129540000Y-103505000D03*
D14*
X127000000Y-103505000D03*
X124460000Y-103505000D03*
X121920000Y-103505000D03*
X119380000Y-103505000D03*
X116840000Y-103505000D03*
X114300000Y-103505000D03*
X111760000Y-103505000D03*
D13*
X175260000Y-103505000D03*
D14*
X172720000Y-103505000D03*
X170180000Y-103505000D03*
X167640000Y-103505000D03*
X165100000Y-103505000D03*
X162560000Y-103505000D03*
X160020000Y-103505000D03*
X157480000Y-103505000D03*
D13*
X193040000Y-84455000D03*
D14*
X190500000Y-84455000D03*
X187960000Y-84455000D03*
X185420000Y-84455000D03*
X182880000Y-84455000D03*
D13*
X106680000Y-84455000D03*
D14*
X104140000Y-84455000D03*
X101600000Y-84455000D03*
X99060000Y-84455000D03*
D13*
X106680000Y-103505000D03*
D14*
X104140000Y-103505000D03*
X101600000Y-103505000D03*
X99060000Y-103505000D03*
D13*
X193040000Y-103505000D03*
D14*
X190500000Y-103505000D03*
X187960000Y-103505000D03*
X185420000Y-103505000D03*
D13*
X187960000Y-89535000D03*
D14*
X185420000Y-89535000D03*
X182880000Y-89535000D03*
D15*
X191515000Y-95280000D03*
X191515000Y-94630000D03*
X191515000Y-93980000D03*
X191515000Y-93330000D03*
X191515000Y-92680000D03*
D16*
X191840000Y-96430000D03*
X191840000Y-91530000D03*
D17*
X194190000Y-96880000D03*
X194190000Y-91080000D03*
D18*
X194190000Y-94780000D03*
X194190000Y-93180000D03*
D19*
X175260000Y-87165000D03*
X175260000Y-89365000D03*
X172720000Y-87165000D03*
X172720000Y-89365000D03*
X170180000Y-87165000D03*
X170180000Y-89365000D03*
X167640000Y-87165000D03*
X167640000Y-89365000D03*
X165100000Y-87165000D03*
X165100000Y-89365000D03*
X162560000Y-87165000D03*
X162560000Y-89365000D03*
X160020000Y-87165000D03*
X160020000Y-89365000D03*
X157480000Y-87165000D03*
X157480000Y-89365000D03*
X129540000Y-89365000D03*
X129540000Y-87165000D03*
X127000000Y-89365000D03*
X127000000Y-87165000D03*
X124460000Y-89365000D03*
X124460000Y-87165000D03*
X121920000Y-89365000D03*
X121920000Y-87165000D03*
X119380000Y-89365000D03*
X119380000Y-87165000D03*
X116840000Y-89365000D03*
X116840000Y-87165000D03*
X114300000Y-89365000D03*
X114300000Y-87165000D03*
X111760000Y-89365000D03*
X111760000Y-87165000D03*
X111760000Y-98595000D03*
X111760000Y-100795000D03*
X114300000Y-98595000D03*
X114300000Y-100795000D03*
X116840000Y-98595000D03*
X116840000Y-100795000D03*
X119380000Y-98595000D03*
X119380000Y-100795000D03*
X121920000Y-98595000D03*
X121920000Y-100795000D03*
X124460000Y-98595000D03*
X124460000Y-100795000D03*
X127000000Y-98595000D03*
X127000000Y-100795000D03*
X129540000Y-98595000D03*
X129540000Y-100795000D03*
X157480000Y-98722000D03*
X157480000Y-100922000D03*
X160020000Y-98722000D03*
X160020000Y-100922000D03*
X162560000Y-98722000D03*
X162560000Y-100922000D03*
X165100000Y-98722000D03*
X165100000Y-100922000D03*
X167640000Y-98722000D03*
X167640000Y-100922000D03*
X170180000Y-98468000D03*
X170180000Y-100668000D03*
X172720000Y-98468000D03*
X172720000Y-100668000D03*
X175260000Y-98468000D03*
X175260000Y-100668000D03*
X177800000Y-89365000D03*
X177800000Y-87165000D03*
X186436000Y-97960000D03*
X186436000Y-100160000D03*
X184150000Y-97960000D03*
X184150000Y-100160000D03*
D20*
X139080000Y-90230000D03*
X139080000Y-90730000D03*
X139080000Y-91230000D03*
X139080000Y-91730000D03*
X139080000Y-92230000D03*
X139080000Y-92730000D03*
X139080000Y-93230000D03*
X139080000Y-93730000D03*
X139080000Y-94230000D03*
X139080000Y-94730000D03*
X139080000Y-95230000D03*
X139080000Y-95730000D03*
X139080000Y-96230000D03*
X139080000Y-96730000D03*
X139080000Y-97230000D03*
X139080000Y-97730000D03*
D21*
X141030000Y-99680000D03*
X141530000Y-99680000D03*
X142030000Y-99680000D03*
X142530000Y-99680000D03*
X143030000Y-99680000D03*
X143530000Y-99680000D03*
X144030000Y-99680000D03*
X144530000Y-99680000D03*
X145030000Y-99680000D03*
X145530000Y-99680000D03*
X146030000Y-99680000D03*
X146530000Y-99680000D03*
X147030000Y-99680000D03*
X147530000Y-99680000D03*
X148030000Y-99680000D03*
X148530000Y-99680000D03*
D20*
X150480000Y-97730000D03*
X150480000Y-97230000D03*
X150480000Y-96730000D03*
X150480000Y-96230000D03*
X150480000Y-95730000D03*
X150480000Y-95230000D03*
X150480000Y-94730000D03*
X150480000Y-94230000D03*
X150480000Y-93730000D03*
X150480000Y-93230000D03*
X150480000Y-92730000D03*
X150480000Y-92230000D03*
X150480000Y-91730000D03*
X150480000Y-91230000D03*
X150480000Y-90730000D03*
X150480000Y-90230000D03*
D21*
X148530000Y-88280000D03*
X148030000Y-88280000D03*
X147530000Y-88280000D03*
X147030000Y-88280000D03*
X146530000Y-88280000D03*
X146030000Y-88280000D03*
X145530000Y-88280000D03*
X145030000Y-88280000D03*
X144530000Y-88280000D03*
X144030000Y-88280000D03*
X143530000Y-88280000D03*
X143030000Y-88280000D03*
X142530000Y-88280000D03*
X142030000Y-88280000D03*
X141530000Y-88280000D03*
X141030000Y-88280000D03*
D19*
X104140000Y-98595000D03*
X104140000Y-100795000D03*
X106680000Y-98595000D03*
X106680000Y-100795000D03*
M02*
